<?xml version="1.0" encoding="utf-8"?>
<!-- Generator: Adobe Illustrator 16.0.0, SVG Export Plug-In . SVG Version: 6.00 Build 0)  -->
<!DOCTYPE svg PUBLIC "-//W3C//DTD SVG 1.1//EN" "http://www.w3.org/Graphics/SVG/1.1/DTD/svg11.dtd">
<svg version="1.1" id="Design" xmlns="http://www.w3.org/2000/svg" xmlns:xlink="http://www.w3.org/1999/xlink" x="0px" y="0px"
	 width="288px" height="288px" viewBox="0 0 288 288" enable-background="new 0 0 288 288" xml:space="preserve">
<g>
	
		<radialGradient id="XMLID_2_" cx="-1187.8291" cy="-716.7949" r="211.1485" gradientTransform="matrix(-1 0 0 -1 -1044.9531 -515.6094)" gradientUnits="userSpaceOnUse">
		<stop  offset="0" style="stop-color:#F3F3F3"/>
		<stop  offset="0.3216" style="stop-color:#ECECEC"/>
		<stop  offset="0.4836" style="stop-color:#E7E7E7"/>
		<stop  offset="0.6823" style="stop-color:#D8D8D8"/>
		<stop  offset="0.8994" style="stop-color:#BFC1C0"/>
		<stop  offset="0.9648" style="stop-color:#B6B8B7"/>
		<stop  offset="0.9973" style="stop-color:#B6B8B7"/>
	</radialGradient>
	<rect id="XMLID_100_" x="-0.001" fill="url(#XMLID_2_)" width="288.001" height="288"/>
	
		<radialGradient id="XMLID_3_" cx="-1187.8291" cy="-776.103" r="211.1373" gradientTransform="matrix(-1 0 0 -0.2234 -1044.9531 -128.44)" gradientUnits="userSpaceOnUse">
		<stop  offset="0" style="stop-color:#F3F3F3"/>
		<stop  offset="0.3216" style="stop-color:#ECECEC"/>
		<stop  offset="0.4836" style="stop-color:#E7E7E7"/>
		<stop  offset="0.6823" style="stop-color:#D8D8D8"/>
		<stop  offset="0.8994" style="stop-color:#BFC1C0"/>
		<stop  offset="0.9648" style="stop-color:#B6B8B7"/>
		<stop  offset="0.9973" style="stop-color:#B6B8B7"/>
	</radialGradient>
	<rect id="XMLID_99_" x="-0.001" y="0" fill="url(#XMLID_3_)" width="288.001" height="64.333"/>
	
		<radialGradient id="SVGID_1_" cx="-261.7466" cy="173.7461" r="102.9769" fx="-261.2682" fy="73.2809" gradientTransform="matrix(2.4743 0 0 1 793.0321 0)" gradientUnits="userSpaceOnUse">
		<stop  offset="0" style="stop-color:#F3F3F3"/>
		<stop  offset="0.1055" style="stop-color:#ECECEC"/>
		<stop  offset="0.1281" style="stop-color:#E1E1E1"/>
		<stop  offset="0.2586" style="stop-color:#A6A6A6"/>
		<stop  offset="0.3888" style="stop-color:#737373"/>
		<stop  offset="0.5158" style="stop-color:#4A4A4A"/>
		<stop  offset="0.6389" style="stop-color:#2A2A2A"/>
		<stop  offset="0.757" style="stop-color:#131313"/>
		<stop  offset="0.8681" style="stop-color:#050505"/>
		<stop  offset="0.9648" style="stop-color:#000000"/>
	</radialGradient>
	<path fill="url(#SVGID_1_)" d="M145.389,70.77C91.341,70.77,41.233,77.577,0,89.176v169.139
		c41.233,11.601,91.341,18.407,145.389,18.407c52.837,0,101.916-6.5,142.611-17.628V88.398
		C247.305,77.27,198.226,70.77,145.389,70.77z"/>
	<g opacity="0.4">
		<image overflow="visible" width="228" height="40" xlink:href="D60CC96AA654C867.png"  transform="matrix(1 0 0 1 32 15)">
		</image>
	</g>
	<polygon fill="#FFFFFF" points="229.312,48.806 62.64,48.806 36.142,20.805 255.809,20.805 	"/>
	<g>
		<g>
			<path fill="#C0C2C4" d="M87.436,157.817c0-0.248,0.047-0.48,0.142-0.697c0.095-0.219,0.224-0.408,0.387-0.571
				s0.354-0.292,0.571-0.388c0.217-0.094,0.45-0.142,0.698-0.142h2.752v1.2h-2.752c-0.083,0-0.162,0.016-0.234,0.047
				c-0.073,0.03-0.136,0.072-0.19,0.127c-0.055,0.055-0.097,0.117-0.128,0.19c-0.03,0.072-0.046,0.15-0.046,0.233
				c0,0.084,0.016,0.163,0.046,0.236c0.031,0.074,0.073,0.139,0.128,0.193c0.054,0.055,0.118,0.097,0.19,0.127
				c0.072,0.031,0.15,0.047,0.234,0.047h1.201c0.248,0,0.481,0.047,0.701,0.14c0.219,0.093,0.41,0.222,0.573,0.385
				s0.292,0.354,0.385,0.573c0.094,0.219,0.14,0.452,0.14,0.7c0,0.249-0.046,0.481-0.14,0.698c-0.093,0.219-0.222,0.408-0.385,0.571
				s-0.354,0.292-0.573,0.388c-0.219,0.094-0.453,0.142-0.701,0.142H87.77v-1.2h2.665c0.083,0,0.162-0.016,0.234-0.047
				c0.073-0.03,0.136-0.072,0.19-0.127c0.055-0.055,0.097-0.117,0.128-0.19c0.03-0.072,0.046-0.15,0.046-0.234
				c0-0.083-0.016-0.161-0.046-0.233c-0.031-0.073-0.073-0.137-0.128-0.191c-0.054-0.054-0.118-0.096-0.19-0.127
				c-0.072-0.031-0.15-0.046-0.234-0.046h-1.201c-0.248,0-0.481-0.048-0.698-0.143c-0.218-0.095-0.408-0.224-0.571-0.387
				s-0.292-0.354-0.387-0.573S87.436,158.066,87.436,157.817z"/>
			<path fill="#C0C2C4" d="M97.167,162.018h-1.196v-4.798h-1.803v-1.2h4.798v1.2h-1.799V162.018z"/>
			<path fill="#C0C2C4" d="M106.045,159.621c0,0.331-0.063,0.644-0.188,0.935s-0.297,0.545-0.514,0.762
				c-0.218,0.216-0.472,0.387-0.764,0.512c-0.292,0.126-0.603,0.188-0.935,0.188c-0.332,0-0.644-0.062-0.935-0.188
				c-0.292-0.125-0.545-0.296-0.761-0.512c-0.216-0.217-0.387-0.471-0.512-0.762s-0.188-0.604-0.188-0.935v-3.602h1.196v3.602
				c0,0.165,0.031,0.319,0.094,0.464c0.062,0.145,0.148,0.271,0.257,0.381s0.236,0.194,0.383,0.258
				c0.146,0.062,0.302,0.094,0.466,0.094s0.32-0.031,0.466-0.094c0.146-0.063,0.274-0.148,0.383-0.258
				c0.108-0.109,0.194-0.236,0.257-0.381c0.062-0.145,0.094-0.299,0.094-0.464v-3.602h1.201V159.621z"/>
			<path fill="#C0C2C4" d="M113.606,159.019c0,0.275-0.036,0.541-0.106,0.797c-0.071,0.255-0.172,0.494-0.304,0.715
				c-0.131,0.223-0.287,0.424-0.468,0.607c-0.181,0.182-0.383,0.339-0.606,0.471c-0.223,0.131-0.462,0.231-0.717,0.303
				c-0.255,0.07-0.521,0.106-0.797,0.106H108.8v-5.998h1.807c0.276,0,0.542,0.036,0.797,0.106c0.255,0.071,0.494,0.172,0.717,0.303
				c0.223,0.132,0.425,0.289,0.606,0.471c0.181,0.184,0.337,0.385,0.468,0.607c0.131,0.221,0.232,0.46,0.304,0.715
				C113.57,158.478,113.606,158.743,113.606,159.019z M112.405,159.019c0-0.248-0.046-0.48-0.14-0.699
				c-0.093-0.217-0.222-0.407-0.385-0.57s-0.354-0.292-0.573-0.387c-0.219-0.095-0.453-0.143-0.701-0.143h-0.598v3.598h0.598
				c0.248,0,0.481-0.047,0.701-0.141c0.219-0.094,0.41-0.222,0.573-0.385s0.292-0.354,0.385-0.572
				C112.359,159.501,112.405,159.267,112.405,159.019z"/>
			<path fill="#C0C2C4" d="M117.314,162.018h-1.201v-5.998h1.201V162.018z"/>
			<path fill="#C0C2C4" d="M126.017,159.044c0,0.284-0.037,0.559-0.111,0.822c-0.074,0.263-0.178,0.51-0.312,0.74
				c-0.134,0.229-0.296,0.439-0.485,0.629s-0.399,0.352-0.627,0.487s-0.476,0.239-0.74,0.313c-0.265,0.074-0.54,0.111-0.824,0.111
				c-0.284,0-0.558-0.037-0.822-0.111s-0.51-0.178-0.74-0.313s-0.44-0.298-0.629-0.487c-0.19-0.189-0.352-0.399-0.487-0.629
				c-0.135-0.23-0.24-0.478-0.314-0.74c-0.074-0.264-0.111-0.538-0.111-0.822c0-0.285,0.037-0.56,0.111-0.824
				c0.074-0.266,0.179-0.512,0.314-0.74s0.297-0.438,0.487-0.627c0.189-0.19,0.399-0.352,0.629-0.486
				c0.23-0.133,0.477-0.237,0.74-0.311c0.264-0.074,0.538-0.111,0.822-0.111c0.285,0,0.559,0.037,0.824,0.111
				c0.265,0.073,0.512,0.178,0.74,0.311c0.229,0.135,0.438,0.296,0.627,0.486c0.189,0.189,0.352,0.398,0.485,0.627
				s0.238,0.475,0.312,0.74C125.98,158.484,126.017,158.759,126.017,159.044z M124.825,159.044c0-0.262-0.05-0.51-0.151-0.742
				c-0.1-0.233-0.236-0.436-0.408-0.607c-0.171-0.171-0.374-0.307-0.606-0.407s-0.48-0.151-0.743-0.151
				c-0.265,0-0.513,0.051-0.744,0.151c-0.232,0.101-0.434,0.236-0.607,0.407c-0.173,0.172-0.309,0.374-0.41,0.607
				c-0.101,0.232-0.15,0.48-0.15,0.742s0.05,0.508,0.15,0.738c0.101,0.229,0.237,0.432,0.41,0.604
				c0.173,0.174,0.375,0.311,0.607,0.41c0.231,0.101,0.479,0.15,0.744,0.15c0.262,0,0.51-0.05,0.743-0.15
				c0.233-0.1,0.435-0.236,0.606-0.41c0.171-0.172,0.308-0.374,0.408-0.604C124.775,159.552,124.825,159.306,124.825,159.044z"/>
			<path fill="#C0C2C4" d="M137.424,160.219c0,0.249-0.047,0.481-0.142,0.698c-0.095,0.219-0.224,0.408-0.387,0.571
				s-0.354,0.292-0.571,0.388c-0.218,0.094-0.45,0.142-0.699,0.142h-2.999v-5.998h2.999c0.249,0,0.481,0.048,0.699,0.142
				c0.217,0.096,0.408,0.225,0.571,0.388s0.292,0.353,0.387,0.571c0.095,0.217,0.142,0.449,0.142,0.697
				c0,0.112-0.016,0.227-0.046,0.344c-0.031,0.117-0.074,0.23-0.13,0.339s-0.123,0.208-0.201,0.297s-0.165,0.163-0.259,0.222
				c0.098,0.053,0.185,0.125,0.263,0.215c0.078,0.092,0.145,0.191,0.201,0.3c0.056,0.108,0.098,0.222,0.127,0.341
				S137.424,160.107,137.424,160.219z M133.827,158.421h1.798c0.084,0,0.162-0.016,0.234-0.047c0.072-0.03,0.136-0.072,0.19-0.127
				c0.054-0.055,0.097-0.119,0.127-0.193c0.031-0.073,0.046-0.152,0.046-0.236c0-0.083-0.015-0.161-0.046-0.233
				c-0.031-0.073-0.073-0.136-0.127-0.19c-0.055-0.055-0.118-0.097-0.19-0.127c-0.073-0.031-0.15-0.047-0.234-0.047h-1.798V158.421z
				 M133.827,160.817h1.798c0.084,0,0.162-0.016,0.234-0.047c0.072-0.03,0.136-0.072,0.19-0.127c0.054-0.055,0.097-0.117,0.127-0.19
				c0.031-0.072,0.046-0.15,0.046-0.234c0-0.083-0.015-0.161-0.046-0.233c-0.031-0.073-0.073-0.137-0.127-0.191
				c-0.055-0.054-0.118-0.096-0.19-0.127c-0.073-0.031-0.15-0.046-0.234-0.046h-1.798V160.817z"/>
			<path fill="#C0C2C4" d="M144.775,162.018h-1.2v-1.2h-2.401v1.2h-1.195v-3.597c0-0.332,0.062-0.645,0.188-0.936
				c0.126-0.291,0.297-0.545,0.513-0.764c0.216-0.217,0.47-0.389,0.761-0.514c0.292-0.126,0.604-0.188,0.936-0.188
				s0.643,0.062,0.935,0.188c0.292,0.125,0.546,0.297,0.764,0.514c0.218,0.219,0.389,0.473,0.515,0.764
				c0.125,0.291,0.188,0.604,0.188,0.936V162.018z M143.575,159.621v-1.2c0-0.165-0.031-0.32-0.094-0.467
				c-0.063-0.146-0.149-0.273-0.257-0.383c-0.109-0.109-0.236-0.194-0.383-0.258c-0.146-0.062-0.303-0.094-0.467-0.094
				s-0.32,0.031-0.467,0.094c-0.146,0.063-0.273,0.148-0.383,0.258c-0.108,0.109-0.194,0.236-0.257,0.383
				c-0.063,0.146-0.095,0.302-0.095,0.467v1.2H143.575z"/>
			<path fill="#C0C2C4" d="M152.32,161.403c-0.279,0.239-0.592,0.424-0.938,0.552s-0.703,0.192-1.074,0.192
				c-0.285,0-0.559-0.037-0.822-0.111s-0.51-0.178-0.74-0.313s-0.439-0.298-0.629-0.487c-0.19-0.189-0.353-0.399-0.488-0.629
				c-0.135-0.23-0.24-0.478-0.313-0.74c-0.073-0.264-0.11-0.538-0.11-0.822c0-0.285,0.037-0.56,0.11-0.824
				c0.073-0.266,0.179-0.513,0.313-0.742c0.136-0.23,0.298-0.439,0.488-0.63c0.189-0.189,0.398-0.353,0.629-0.487
				s0.477-0.24,0.74-0.313c0.264-0.074,0.537-0.11,0.822-0.11c0.371,0,0.729,0.062,1.074,0.189s0.658,0.312,0.938,0.555
				l-0.636,1.045c-0.176-0.189-0.384-0.335-0.624-0.437c-0.239-0.103-0.49-0.153-0.752-0.153c-0.266,0-0.514,0.051-0.744,0.151
				c-0.232,0.101-0.435,0.236-0.607,0.407c-0.173,0.172-0.309,0.374-0.41,0.607c-0.1,0.232-0.15,0.48-0.15,0.742
				s0.051,0.508,0.15,0.738c0.102,0.229,0.237,0.432,0.41,0.604c0.173,0.174,0.375,0.311,0.607,0.41
				c0.23,0.101,0.479,0.15,0.744,0.15c0.262,0,0.513-0.051,0.752-0.152c0.24-0.102,0.448-0.247,0.624-0.438L152.32,161.403z"/>
			<path fill="#C0C2C4" d="M155.928,162.018h-1.2v-5.998h1.2v2.999l2.234-2.999h1.363l-1.895,2.53l1.895,3.468h-1.363l-1.318-2.426
				l-0.916,1.226V162.018z"/>
			<path fill="#C0C2C4" d="M166.371,161.411c-0.279,0.236-0.59,0.419-0.934,0.546c-0.342,0.127-0.699,0.19-1.07,0.19
				c-0.284,0-0.559-0.037-0.822-0.111s-0.51-0.178-0.738-0.313s-0.438-0.297-0.627-0.485c-0.189-0.188-0.352-0.396-0.485-0.627
				s-0.237-0.478-0.312-0.742c-0.074-0.266-0.111-0.54-0.111-0.824c0-0.285,0.037-0.559,0.111-0.82s0.178-0.508,0.312-0.738
				s0.296-0.439,0.485-0.627c0.189-0.188,0.398-0.35,0.627-0.483s0.475-0.237,0.738-0.312s0.538-0.111,0.822-0.111
				c0.371,0,0.729,0.064,1.07,0.191c0.344,0.127,0.654,0.309,0.934,0.545l-0.628,1.046c-0.181-0.185-0.39-0.328-0.627-0.433
				c-0.237-0.105-0.487-0.157-0.749-0.157s-0.508,0.05-0.738,0.151c-0.23,0.1-0.432,0.236-0.604,0.407s-0.31,0.372-0.409,0.603
				c-0.102,0.23-0.15,0.477-0.15,0.738c0,0.265,0.049,0.513,0.15,0.744c0.1,0.231,0.236,0.434,0.409,0.606s0.374,0.31,0.604,0.41
				s0.477,0.15,0.738,0.15c0.15,0,0.297-0.019,0.439-0.054c0.143-0.037,0.277-0.087,0.406-0.151v-1.706h1.158V161.411z"/>
			<path fill="#C0C2C4" d="M170.209,162.018h-1.201v-5.998h2.401c0.22,0,0.433,0.028,0.636,0.086s0.395,0.138,0.571,0.242
				s0.339,0.23,0.485,0.376c0.146,0.146,0.271,0.31,0.376,0.488c0.104,0.178,0.186,0.369,0.243,0.572
				c0.057,0.204,0.086,0.416,0.086,0.637c0,0.206-0.026,0.406-0.078,0.602c-0.051,0.195-0.125,0.381-0.222,0.557
				s-0.214,0.338-0.354,0.485s-0.296,0.276-0.468,0.385l0.664,1.568h-1.275l-0.522-1.209l-1.343,0.009V162.018z M170.209,157.22
				v2.401h1.2c0.165,0,0.319-0.032,0.464-0.095c0.146-0.062,0.272-0.148,0.381-0.257c0.109-0.108,0.195-0.236,0.258-0.383
				s0.094-0.302,0.094-0.466c0-0.165-0.031-0.32-0.094-0.467s-0.148-0.273-0.258-0.383c-0.108-0.109-0.235-0.194-0.381-0.258
				c-0.145-0.062-0.299-0.094-0.464-0.094H170.209z"/>
			<path fill="#C0C2C4" d="M182.182,159.044c0,0.284-0.037,0.559-0.11,0.822c-0.073,0.263-0.178,0.51-0.312,0.74
				c-0.134,0.229-0.296,0.439-0.485,0.629s-0.399,0.352-0.628,0.487s-0.475,0.239-0.74,0.313c-0.265,0.074-0.539,0.111-0.824,0.111
				c-0.283,0-0.558-0.037-0.821-0.111s-0.511-0.178-0.74-0.313s-0.44-0.298-0.63-0.487s-0.352-0.399-0.486-0.629
				c-0.136-0.23-0.24-0.478-0.314-0.74c-0.074-0.264-0.111-0.538-0.111-0.822c0-0.285,0.037-0.56,0.111-0.824
				c0.074-0.266,0.179-0.512,0.314-0.74c0.135-0.229,0.297-0.438,0.486-0.627c0.189-0.19,0.4-0.352,0.63-0.486
				c0.229-0.133,0.477-0.237,0.74-0.311c0.264-0.074,0.538-0.111,0.821-0.111c0.285,0,0.56,0.037,0.824,0.111
				c0.266,0.073,0.512,0.178,0.74,0.311c0.229,0.135,0.438,0.296,0.628,0.486c0.189,0.189,0.352,0.398,0.485,0.627
				s0.238,0.475,0.312,0.74C182.145,158.484,182.182,158.759,182.182,159.044z M180.99,159.044c0-0.262-0.051-0.51-0.15-0.742
				c-0.101-0.233-0.236-0.436-0.408-0.607c-0.172-0.171-0.373-0.307-0.606-0.407s-0.48-0.151-0.743-0.151
				c-0.264,0-0.513,0.051-0.744,0.151s-0.434,0.236-0.606,0.407c-0.173,0.172-0.31,0.374-0.409,0.607
				c-0.102,0.232-0.15,0.48-0.15,0.742s0.049,0.508,0.15,0.738c0.1,0.229,0.236,0.432,0.409,0.604
				c0.173,0.174,0.375,0.311,0.606,0.41c0.231,0.101,0.48,0.15,0.744,0.15c0.263,0,0.51-0.05,0.743-0.15
				c0.233-0.1,0.435-0.236,0.606-0.41c0.172-0.172,0.308-0.374,0.408-0.604C180.939,159.552,180.99,159.306,180.99,159.044z"/>
			<path fill="#C0C2C4" d="M189.412,159.621c0,0.331-0.062,0.644-0.188,0.935c-0.126,0.291-0.297,0.545-0.515,0.762
				c-0.218,0.216-0.472,0.387-0.764,0.512c-0.292,0.126-0.603,0.188-0.935,0.188s-0.644-0.062-0.936-0.188
				c-0.291-0.125-0.545-0.296-0.761-0.512c-0.216-0.217-0.387-0.471-0.513-0.762c-0.125-0.291-0.188-0.604-0.188-0.935v-3.602h1.195
				v3.602c0,0.165,0.031,0.319,0.095,0.464c0.062,0.145,0.148,0.271,0.257,0.381c0.109,0.109,0.236,0.194,0.383,0.258
				c0.146,0.062,0.303,0.094,0.467,0.094s0.32-0.031,0.467-0.094c0.146-0.063,0.273-0.148,0.383-0.258
				c0.107-0.109,0.193-0.236,0.257-0.381c0.062-0.145,0.094-0.299,0.094-0.464v-3.602h1.2V159.621z"/>
			<path fill="#C0C2C4" d="M196.965,162.018h-1.284l-2.313-3.948v3.948h-1.2v-5.998h1.284l2.312,3.952v-3.952h1.201V162.018z"/>
			<path fill="#C0C2C4" d="M204.597,159.019c0,0.275-0.036,0.541-0.106,0.797c-0.071,0.255-0.172,0.494-0.304,0.715
				c-0.131,0.223-0.287,0.424-0.468,0.607c-0.182,0.182-0.384,0.339-0.607,0.471c-0.223,0.131-0.462,0.231-0.717,0.303
				c-0.256,0.07-0.521,0.106-0.797,0.106h-1.807v-5.998h1.807c0.275,0,0.541,0.036,0.797,0.106c0.255,0.071,0.494,0.172,0.717,0.303
				c0.224,0.132,0.426,0.289,0.607,0.471c0.181,0.184,0.337,0.385,0.468,0.607c0.132,0.221,0.232,0.46,0.304,0.715
				C204.561,158.478,204.597,158.743,204.597,159.019z M203.396,159.019c0-0.248-0.047-0.48-0.141-0.699
				c-0.094-0.217-0.222-0.407-0.385-0.57s-0.354-0.292-0.572-0.387c-0.22-0.095-0.453-0.143-0.701-0.143H201v3.598h0.598
				c0.248,0,0.481-0.047,0.701-0.141c0.219-0.094,0.409-0.222,0.572-0.385s0.291-0.354,0.385-0.572S203.396,159.267,203.396,159.019
				z"/>
		</g>
		<g>
			<path fill="#C0C2C4" d="M100.419,165.696l-1.022,3.113h-0.623l-1.018-3.113h0.708l0.621,2.078l0.623-2.078H100.419z"/>
			<path fill="#C0C2C4" d="M105.519,168.81h-2.134v-3.113h2.134v0.623h-1.511v0.623h1.022v0.623h-1.022v0.621h1.511V168.81z"/>
			<path fill="#C0C2C4" d="M111.032,168.491c-0.145,0.124-0.307,0.22-0.486,0.286c-0.179,0.067-0.365,0.101-0.558,0.101
				c-0.148,0-0.29-0.02-0.427-0.059c-0.137-0.037-0.265-0.092-0.384-0.162c-0.12-0.07-0.229-0.154-0.327-0.253
				c-0.099-0.099-0.183-0.208-0.253-0.327s-0.125-0.247-0.163-0.385c-0.038-0.137-0.057-0.278-0.057-0.426
				c0-0.148,0.019-0.29,0.057-0.428c0.039-0.138,0.093-0.266,0.163-0.385c0.07-0.12,0.154-0.229,0.253-0.327
				c0.098-0.099,0.207-0.183,0.327-0.253c0.119-0.07,0.248-0.125,0.384-0.163s0.279-0.058,0.427-0.058
				c0.192,0,0.378,0.033,0.558,0.1c0.18,0.065,0.342,0.161,0.486,0.287l-0.33,0.543c-0.091-0.099-0.199-0.174-0.323-0.227
				s-0.255-0.08-0.391-0.08c-0.138,0-0.267,0.026-0.387,0.078c-0.12,0.053-0.225,0.123-0.315,0.212
				c-0.089,0.089-0.161,0.194-0.212,0.315c-0.052,0.12-0.078,0.248-0.078,0.385c0,0.136,0.026,0.264,0.078,0.383
				c0.052,0.119,0.123,0.225,0.212,0.314c0.09,0.09,0.195,0.16,0.315,0.213c0.12,0.051,0.249,0.078,0.387,0.078
				c0.136,0,0.266-0.027,0.391-0.08s0.232-0.128,0.323-0.227L111.032,168.491z"/>
			<path fill="#C0C2C4" d="M115.367,168.81h-0.621v-2.49h-0.936v-0.623h2.49v0.623h-0.934V168.81z"/>
			<path fill="#C0C2C4" d="M122.251,167.267c0,0.147-0.019,0.289-0.058,0.426c-0.038,0.138-0.092,0.266-0.162,0.385
				s-0.153,0.229-0.252,0.327c-0.098,0.099-0.207,0.183-0.326,0.253s-0.247,0.125-0.384,0.162c-0.137,0.039-0.28,0.059-0.427,0.059
				c-0.148,0-0.29-0.02-0.427-0.059c-0.137-0.037-0.265-0.092-0.384-0.162c-0.12-0.07-0.229-0.154-0.327-0.253
				c-0.099-0.099-0.183-0.208-0.253-0.327s-0.125-0.247-0.163-0.385c-0.038-0.137-0.057-0.278-0.057-0.426
				c0-0.148,0.019-0.29,0.057-0.428c0.039-0.138,0.093-0.266,0.163-0.385c0.07-0.118,0.154-0.227,0.253-0.325
				c0.098-0.099,0.207-0.183,0.327-0.252c0.119-0.069,0.248-0.123,0.384-0.161c0.137-0.039,0.279-0.059,0.427-0.059
				c0.147,0,0.29,0.02,0.427,0.059c0.138,0.038,0.266,0.092,0.384,0.161s0.228,0.153,0.326,0.252
				c0.099,0.099,0.183,0.207,0.252,0.325c0.069,0.119,0.124,0.247,0.162,0.385C122.232,166.977,122.251,167.118,122.251,167.267z
				 M121.632,167.267c0-0.137-0.026-0.265-0.078-0.385c-0.052-0.121-0.123-0.227-0.212-0.315c-0.089-0.089-0.194-0.159-0.314-0.212
				c-0.121-0.052-0.25-0.078-0.385-0.078c-0.138,0-0.267,0.026-0.387,0.078c-0.12,0.053-0.225,0.123-0.315,0.212
				c-0.089,0.089-0.161,0.194-0.212,0.315c-0.052,0.12-0.078,0.248-0.078,0.385c0,0.136,0.026,0.264,0.078,0.383
				c0.052,0.119,0.123,0.225,0.212,0.314c0.09,0.09,0.195,0.16,0.315,0.213c0.12,0.051,0.249,0.078,0.387,0.078
				c0.136,0,0.264-0.027,0.385-0.078c0.121-0.053,0.226-0.123,0.314-0.213c0.089-0.09,0.16-0.195,0.212-0.314
				S121.632,167.402,121.632,167.267z"/>
			<path fill="#C0C2C4" d="M125.95,168.81h-0.623v-3.113h1.246c0.115,0,0.225,0.016,0.33,0.045c0.106,0.029,0.205,0.072,0.296,0.126
				s0.176,0.12,0.252,0.195c0.076,0.076,0.141,0.161,0.195,0.253c0.054,0.093,0.096,0.191,0.126,0.298
				c0.03,0.105,0.044,0.216,0.044,0.329c0,0.107-0.013,0.212-0.04,0.313c-0.027,0.101-0.065,0.197-0.115,0.288
				c-0.05,0.092-0.111,0.176-0.184,0.252c-0.072,0.077-0.153,0.144-0.243,0.2l0.345,0.813h-0.662l-0.271-0.627l-0.697,0.004V168.81z
				 M125.95,166.319v1.246h0.623c0.085,0,0.166-0.016,0.241-0.049c0.075-0.031,0.141-0.076,0.197-0.133
				c0.057-0.057,0.101-0.123,0.134-0.199s0.049-0.156,0.049-0.242c0-0.084-0.016-0.166-0.049-0.241
				c-0.033-0.076-0.077-0.143-0.134-0.198c-0.056-0.057-0.122-0.102-0.197-0.135c-0.075-0.031-0.156-0.049-0.241-0.049H125.95z"/>
			<path fill="#C0C2C4" d="M135.427,168.81h-0.623v-3.113h0.623V168.81z"/>
			<path fill="#C0C2C4" d="M140.852,168.81h-2.18v-3.113h0.623v2.49h1.557V168.81z"/>
			<path fill="#C0C2C4" d="M146.022,168.81h-2.18v-3.113h0.623v2.49h1.557V168.81z"/>
			<path fill="#C0C2C4" d="M151.363,167.565c0,0.173-0.033,0.334-0.098,0.486c-0.066,0.15-0.154,0.283-0.268,0.395
				c-0.113,0.112-0.245,0.201-0.396,0.266c-0.15,0.065-0.312,0.098-0.484,0.098c-0.173,0-0.334-0.032-0.486-0.098
				c-0.15-0.064-0.282-0.153-0.395-0.266c-0.112-0.111-0.201-0.244-0.266-0.395c-0.065-0.152-0.098-0.313-0.098-0.486v-1.869h0.621
				v1.869c0,0.086,0.016,0.166,0.049,0.242c0.032,0.074,0.076,0.141,0.133,0.197s0.123,0.101,0.199,0.133
				c0.076,0.033,0.156,0.049,0.242,0.049c0.085,0,0.166-0.016,0.242-0.049c0.075-0.032,0.142-0.076,0.197-0.133
				c0.057-0.057,0.102-0.123,0.135-0.197c0.031-0.076,0.049-0.156,0.049-0.242v-1.869h0.623V167.565z"/>
			<path fill="#C0C2C4" d="M154.389,166.63c0-0.129,0.024-0.249,0.074-0.361c0.049-0.113,0.115-0.213,0.2-0.297
				c0.085-0.085,0.184-0.152,0.296-0.201c0.113-0.049,0.234-0.074,0.363-0.074h1.428v0.623h-1.428c-0.043,0-0.084,0.009-0.121,0.024
				c-0.038,0.017-0.071,0.038-0.1,0.066c-0.027,0.028-0.051,0.062-0.066,0.099s-0.023,0.078-0.023,0.121
				c0,0.044,0.008,0.085,0.023,0.123c0.016,0.039,0.039,0.072,0.066,0.1c0.028,0.029,0.062,0.051,0.1,0.066
				c0.037,0.016,0.078,0.023,0.121,0.023h0.623c0.129,0,0.25,0.025,0.363,0.073c0.113,0.049,0.213,0.115,0.298,0.2
				c0.085,0.084,0.151,0.184,0.2,0.297c0.048,0.113,0.072,0.234,0.072,0.363s-0.024,0.25-0.072,0.363
				c-0.049,0.113-0.115,0.211-0.2,0.297c-0.085,0.084-0.185,0.15-0.298,0.2s-0.234,0.073-0.363,0.073h-1.383v-0.623h1.383
				c0.043,0,0.084-0.008,0.121-0.023c0.038-0.016,0.07-0.038,0.1-0.066c0.027-0.027,0.05-0.061,0.066-0.099
				c0.016-0.038,0.023-0.078,0.023-0.122c0-0.043-0.008-0.084-0.023-0.121c-0.017-0.037-0.039-0.07-0.066-0.099
				c-0.029-0.028-0.062-0.05-0.1-0.066c-0.037-0.016-0.078-0.024-0.121-0.024h-0.623c-0.129,0-0.25-0.023-0.363-0.073
				c-0.112-0.05-0.211-0.116-0.296-0.2c-0.085-0.085-0.151-0.184-0.2-0.298C154.413,166.88,154.389,166.759,154.389,166.63z"/>
			<path fill="#C0C2C4" d="M161.219,168.81h-0.621v-2.49h-0.936v-0.623h2.49v0.623h-0.934V168.81z"/>
			<path fill="#C0C2C4" d="M165.771,168.81h-0.623v-3.113h1.246c0.115,0,0.225,0.016,0.33,0.045
				c0.106,0.029,0.205,0.072,0.297,0.126s0.176,0.12,0.252,0.195c0.076,0.076,0.141,0.161,0.195,0.253
				c0.055,0.093,0.096,0.191,0.126,0.298c0.03,0.105,0.044,0.216,0.044,0.329c0,0.107-0.013,0.212-0.039,0.313
				c-0.027,0.101-0.066,0.197-0.115,0.288c-0.051,0.092-0.111,0.176-0.184,0.252c-0.072,0.077-0.154,0.144-0.244,0.2l0.346,0.813
				h-0.662l-0.271-0.627l-0.697,0.004V168.81z M165.771,166.319v1.246h0.623c0.086,0,0.166-0.016,0.242-0.049
				c0.074-0.031,0.141-0.076,0.197-0.133s0.101-0.123,0.133-0.199c0.033-0.076,0.049-0.156,0.049-0.242
				c0-0.084-0.016-0.166-0.049-0.241c-0.032-0.076-0.076-0.143-0.133-0.198c-0.057-0.057-0.123-0.102-0.197-0.135
				c-0.076-0.031-0.156-0.049-0.242-0.049H165.771z"/>
			<path fill="#C0C2C4" d="M173.17,168.81h-0.623v-0.623h-1.246v0.623h-0.621v-1.867c0-0.172,0.033-0.334,0.098-0.484
				c0.066-0.151,0.154-0.283,0.267-0.396s0.243-0.201,0.396-0.268c0.15-0.064,0.312-0.098,0.484-0.098
				c0.173,0,0.334,0.033,0.486,0.098c0.15,0.066,0.283,0.154,0.396,0.268s0.202,0.245,0.267,0.396
				c0.065,0.15,0.098,0.312,0.098,0.484V168.81z M172.547,167.565v-0.623c0-0.084-0.016-0.166-0.049-0.241
				c-0.032-0.076-0.076-0.143-0.133-0.198c-0.057-0.057-0.123-0.102-0.199-0.135c-0.076-0.031-0.156-0.049-0.242-0.049
				c-0.085,0-0.166,0.018-0.242,0.049c-0.076,0.033-0.142,0.078-0.198,0.135c-0.056,0.056-0.101,0.122-0.134,0.198
				c-0.032,0.075-0.049,0.157-0.049,0.241v0.623H172.547z"/>
			<path fill="#C0C2C4" d="M177.592,168.81h-0.621v-2.49h-0.936v-0.623h2.49v0.623h-0.934V168.81z"/>
			<path fill="#C0C2C4" d="M182.146,168.81h-0.623v-3.113h0.623V168.81z"/>
			<path fill="#C0C2C4" d="M188.441,167.267c0,0.147-0.02,0.289-0.058,0.426c-0.038,0.138-0.093,0.266-0.161,0.385
				c-0.07,0.119-0.154,0.229-0.252,0.327c-0.099,0.099-0.207,0.183-0.326,0.253s-0.246,0.125-0.385,0.162
				c-0.137,0.039-0.279,0.059-0.427,0.059s-0.29-0.02-0.427-0.059c-0.137-0.037-0.266-0.092-0.385-0.162s-0.229-0.154-0.326-0.253
				c-0.099-0.099-0.183-0.208-0.253-0.327s-0.124-0.247-0.163-0.385c-0.038-0.137-0.057-0.278-0.057-0.426
				c0-0.148,0.019-0.29,0.057-0.428c0.039-0.138,0.093-0.266,0.163-0.385c0.07-0.118,0.154-0.227,0.253-0.325
				c0.098-0.099,0.207-0.183,0.326-0.252s0.248-0.123,0.385-0.161c0.137-0.039,0.279-0.059,0.427-0.059s0.29,0.02,0.427,0.059
				c0.139,0.038,0.266,0.092,0.385,0.161s0.228,0.153,0.326,0.252c0.098,0.099,0.182,0.207,0.252,0.325
				c0.068,0.119,0.123,0.247,0.161,0.385S188.441,167.118,188.441,167.267z M187.822,167.267c0-0.137-0.025-0.265-0.078-0.385
				c-0.052-0.121-0.122-0.227-0.211-0.315c-0.09-0.089-0.194-0.159-0.314-0.212c-0.121-0.052-0.25-0.078-0.386-0.078
				c-0.138,0-0.267,0.026-0.387,0.078c-0.12,0.053-0.226,0.123-0.315,0.212c-0.089,0.089-0.16,0.194-0.212,0.315
				c-0.052,0.12-0.078,0.248-0.078,0.385c0,0.136,0.026,0.264,0.078,0.383s0.123,0.225,0.212,0.314
				c0.09,0.09,0.195,0.16,0.315,0.213c0.12,0.051,0.249,0.078,0.387,0.078c0.136,0,0.265-0.027,0.386-0.078
				c0.12-0.053,0.225-0.123,0.314-0.213c0.089-0.09,0.159-0.195,0.211-0.314C187.797,167.53,187.822,167.402,187.822,167.267z"/>
			<path fill="#C0C2C4" d="M194.008,168.81h-0.667l-1.2-2.049v2.049h-0.623v-3.113h0.666l1.201,2.053v-2.053h0.623V168.81z"/>
		</g>
	</g>
</g>
</svg>
