<?xml version="1.0" encoding="utf-8"?>
<!-- Generator: Adobe Illustrator 16.0.0, SVG Export Plug-In . SVG Version: 6.00 Build 0)  -->
<!DOCTYPE svg PUBLIC "-//W3C//DTD SVG 1.1//EN" "http://www.w3.org/Graphics/SVG/1.1/DTD/svg11.dtd">
<svg version="1.1" id="Design" xmlns="http://www.w3.org/2000/svg" xmlns:xlink="http://www.w3.org/1999/xlink" x="0px" y="0px"
	 width="288px" height="288px" viewBox="0 0 288 288" enable-background="new 0 0 288 288" xml:space="preserve">
<g>
	<radialGradient id="SVGID_1_" cx="144" cy="144" r="210.5914" gradientUnits="userSpaceOnUse">
		<stop  offset="0.3266" style="stop-color:#FFFFFF"/>
		<stop  offset="0.5511" style="stop-color:#F4F8FA"/>
		<stop  offset="0.9452" style="stop-color:#D7E5EE"/>
		<stop  offset="1" style="stop-color:#D2E2EC"/>
	</radialGradient>
	<rect fill="url(#SVGID_1_)" width="288" height="288"/>
	<g>
		<g opacity="0.3">
			<g>
				<g>
					<g>
						<path fill="#5DD5F2" d="M0,61.752c6.389-0.11,12.786-0.222,19.201-0.331c-0.787-2.703-1.592-5.472-2.42-8.314
							C11.173,53.213,5.586,53.316,0,53.421V61.752z"/>
						<path fill="#D5FFFF" d="M252.513,35.639c-2.249,0.046-4.493,0.094-6.737,0.14c-0.634,0.923-1.255,1.842-1.888,2.748
							c2.221-0.043,4.439-0.089,6.66-0.135C251.196,37.48,251.854,36.563,252.513,35.639z"/>
						<path fill="#91FDFF" d="M215.45,34.517c-5.315,0.112-10.618,0.224-15.915,0.335c-1.077,2.188-2.129,4.342-3.167,6.453
							c5.149-0.103,10.308-0.206,15.475-0.31C213.028,38.876,214.223,36.715,215.45,34.517z"/>
						<path fill="#8DFDFF" d="M173.018,35.376c-5.295,0.112-10.584,0.223-15.858,0.334c-0.696,2.19-1.376,4.341-2.04,6.455
							c5.133-0.104,10.276-0.207,15.427-0.31C171.353,39.734,172.178,37.575,173.018,35.376z"/>
						<path fill="#C4FFFF" d="M127.101,37.87c-2.755,0.057-5.508,0.115-8.257,0.171c-0.18,1.144-0.355,2.275-0.534,3.395
							c2.709-0.054,5.422-0.109,8.136-0.164C126.657,40.147,126.884,39.016,127.101,37.87z"/>
						<path fill="#0F77B0" d="M99.604,32.807c-11.764,0.256-23.486,0.511-35.16,0.765c0.347,4.903,0.677,9.61,0.994,14.134
							c10.992-0.212,22.025-0.426,33.1-0.641C98.877,42.502,99.232,37.755,99.604,32.807z"/>
						<path fill="#0C4C84" d="M59.274,33.087c-12.557,0.275-25.059,0.549-37.509,0.821c1.299,5.25,2.541,10.275,3.731,15.093
							c11.677-0.225,23.403-0.451,35.17-0.678C60.225,43.462,59.758,38.389,59.274,33.087z"/>
						<path fill="#06466F" d="M0,49.585c7.411-0.143,14.833-0.286,22.282-0.431c-1.275-4.871-2.606-9.96-3.997-15.277
							C12.177,34.011,6.083,34.146,0,34.278V49.585z"/>
						<path fill="#28B2C9" d="M288,21.158c-0.977,1.201-1.943,2.39-2.903,3.567c0.967-0.022,1.937-0.042,2.903-0.065V21.158z"/>
						<path fill="#69B9D4" d="M281.558,10.999c-10.271,0.253-20.501,0.504-30.703,0.756c-2.921,4.544-5.745,8.936-8.472,13.18
							c9.678-0.218,19.382-0.436,29.121-0.656C274.738,20.003,278.084,15.577,281.558,10.999z"/>
						<path fill="#55AECC" d="M235.521,11.676c-10.808,0.268-21.576,0.532-32.312,0.798c-2.222,4.8-4.372,9.426-6.435,13.895
							c10.155-0.229,20.339-0.458,30.562-0.686C229.961,21.181,232.698,16.519,235.521,11.676z"/>
						<path fill="#247FA5" d="M192.615,11.288c-12.843,0.319-25.634,0.638-38.368,0.957c-1.585,5.724-3.102,11.206-4.555,16.458
							c11.929-0.266,23.902-0.532,35.927-0.798C187.848,22.602,190.188,17.07,192.615,11.288z"/>
						<path fill="#2796CA" d="M145.102,12.964c-11.902,0.296-23.762,0.591-35.576,0.883c-0.572,5.327-1.123,10.438-1.65,15.351
							c11.117-0.248,22.274-0.497,33.471-0.746C142.545,23.496,143.798,18.338,145.102,12.964z"/>
						<path fill="#3995C6" d="M99.313,14.225c-11.544,0.285-23.046,0.57-34.505,0.856c0.332,5.181,0.651,10.161,0.956,14.95
							c10.803-0.242,21.641-0.484,32.519-0.726C98.615,24.475,98.958,19.453,99.313,14.225z"/>
						<path fill="#47CDF8" d="M51.284,16.983c-9.051,0.222-18.074,0.444-27.07,0.665c0.906,4.074,1.782,8.02,2.632,11.847
							c8.586-0.192,17.196-0.388,25.83-0.582C52.226,25.062,51.764,21.085,51.284,16.983z"/>
						<path fill="#4FD6F6" d="M0,29.885c3.43-0.078,6.846-0.155,10.282-0.233c-1.062-3.669-2.159-7.448-3.286-11.345
							C4.657,18.364,2.335,18.422,0,18.479V29.885z"/>
						<path fill="#38A0C3" d="M255.938,0c-1.109,1.75-2.205,3.478-3.284,5.18C264.391,4.879,276.172,4.578,288,4.274V0H255.938z"/>
						<path fill="#2C9EC7" d="M207.194,0c-1.02,2.232-2.028,4.439-3.015,6.595c12.161-0.312,24.368-0.626,36.625-0.938
							c1.098-1.855,2.215-3.745,3.345-5.657H207.194z"/>
						<path fill="#31A8D1" d="M159.792,0c-0.723,2.537-1.437,5.045-2.129,7.487c11.559-0.296,23.161-0.594,34.81-0.893
							c0.891-2.156,1.802-4.364,2.724-6.595H159.792z"/>
						<path fill="#2085B7" d="M110.172,0c-0.341,3.26-0.676,6.472-1,9.579c12.55-0.319,25.149-0.64,37.804-0.964
							c0.686-2.801,1.396-5.689,2.114-8.615H110.172z"/>
						<path fill="#B7FFFF" d="M75.354,0c0.035,1.546,0.07,3.095,0.104,4.607c4.383-0.117,8.775-0.233,13.172-0.35
							C88.667,2.86,88.704,1.426,88.74,0H75.354z"/>
						<path fill="#ADFFFF" d="M28.598,0c0.362,1.891,0.721,3.761,1.074,5.602c4.022-0.106,8.046-0.213,12.079-0.322
							c-0.256-1.735-0.516-3.5-0.776-5.28H28.598z"/>
						<path fill="#2FC1FF" d="M0,0v10.615c2.021-0.052,4.025-0.104,6.049-0.157C5.086,7.072,4.087,3.568,3.072,0H0z"/>
					</g>
					<g opacity="0.4">
						<path fill="#0F77B0" d="M144.257,0c-0.184,0.804-0.367,1.607-0.548,2.401c20.428-0.542,40.992-1.09,61.695-1.64
							c0.113-0.25,0.23-0.51,0.344-0.761H144.257z"/>
						<path fill="#0C4C84" d="M214.801,0c-0.271,0.56-0.551,1.137-0.819,1.691c21.204-0.562,42.562-1.124,64.06-1.691H214.801z"/>
						<path fill="#247FA5" d="M11.367,35.651c17.047-0.368,34.195-0.74,51.44-1.11c-0.59-7.636-1.221-15.77-1.894-24.456
							c-18.985,0.488-37.85,0.971-56.6,1.452C6.818,20.097,9.163,28.119,11.367,35.651z"/>
						<path fill="#2796CA" d="M75.113,33.64c16.466-0.357,33.023-0.716,49.669-1.076c1.314-7.346,2.71-15.146,4.188-23.452
							c-18.264,0.467-36.418,0.931-54.465,1.39C74.721,18.692,74.922,26.39,75.113,33.64z"/>
						<path fill="#3995C6" d="M139.327,32.086c16.58-0.358,33.245-0.722,50.007-1.085c3.24-7.364,6.695-15.181,10.374-23.499
							c-18.396,0.47-36.686,0.936-54.865,1.399C142.891,17.106,141.057,24.819,139.327,32.086z"/>
						<path fill="#47CDF8" d="M210.722,28.398c13.703-0.302,27.467-0.605,41.292-0.911c4.169-6.061,8.551-12.425,13.154-19.116
							c-14.919,0.373-29.77,0.746-44.547,1.116C217.159,16.105,213.866,22.403,210.722,28.398z"/>
						<path fill="#4FD6F6" d="M288,15.406c-3.036,3.821-5.993,7.545-8.857,11.148c2.946-0.066,5.906-0.131,8.857-0.196V15.406z"/>
						<path fill="#2C9EC7" d="M0,59.14c2.267-0.041,4.525-0.081,6.795-0.122C4.851,53.384,2.799,47.448,0.64,41.186
							C0.426,41.19,0.214,41.195,0,41.2V59.14z"/>
						<path fill="#31A8D1" d="M20.573,58.478c13.76-0.244,27.585-0.489,41.473-0.735c-0.492-5.52-1.01-11.327-1.558-17.443
							c-14.993,0.309-29.915,0.617-44.76,0.922C17.426,47.271,19.04,53.016,20.573,58.478z"/>
						<path fill="#2085B7" d="M74.762,58.375c15.444-0.272,30.969-0.543,46.572-0.818c1.129-6.165,2.327-12.689,3.591-19.607
							c-17.017,0.354-33.935,0.706-50.762,1.058C74.375,45.836,74.573,52.283,74.762,58.375z"/>
						<path fill="#B7FFFF" d="M149.233,51.016c5.621-0.104,11.254-0.209,16.896-0.313c0.838-2.239,1.706-4.521,2.584-6.85
							c-5.818,0.113-11.623,0.228-17.418,0.342C150.594,46.514,149.906,48.788,149.233,51.016z"/>
						<path fill="#ADFFFF" d="M210.227,49.652c5.34-0.1,10.691-0.199,16.051-0.297c1.35-2.12,2.741-4.272,4.146-6.472
							c-5.517,0.108-11.024,0.215-16.52,0.324C212.65,45.395,211.425,47.543,210.227,49.652z"/>
						<path fill="#2FC1FF" d="M288,36.748c-6.396,0.131-12.785,0.262-19.156,0.392c-4.438,5.651-8.685,11.039-12.732,16.184
							c10.59-0.19,21.227-0.38,31.889-0.572V36.748z"/>
						<path fill="#2BB1D3" d="M0,78.423c4.107-0.06,8.214-0.119,12.332-0.178c-1.542-4.399-3.154-8.999-4.84-13.81
							C4.989,64.478,2.498,64.52,0,64.561V78.423z"/>
					</g>
				</g>
			</g>
		</g>
		<g>
			<g>
				<g>
					<g>
						<path fill="#5DD5F2" d="M40.805,29.577c-4.623-0.039-9.236-0.079-13.838-0.118c0.648,2.39,1.279,4.721,1.896,6.992
							c4.433,0.046,8.876,0.089,13.327,0.138C41.743,34.31,41.277,31.974,40.805,29.577z"/>
						<path fill="#2799BC" d="M18.848,28.127c-6.198-0.049-12.374-0.099-18.531-0.149c1.323,3.23,2.603,6.351,3.841,9.369
							c5.858,0.063,11.734,0.124,17.627,0.187C20.837,34.504,19.861,31.371,18.848,28.127z"/>
						<path fill="#31E4FA" d="M288,22.258c-2.092,1.939-4.146,3.846-6.154,5.71c2.044,0.016,4.106,0.031,6.154,0.046V22.258z"/>
						<path fill="#9EF9FF" d="M280.99,18.777c-3.6-0.02-7.191-0.038-10.775-0.057c-1.801,1.858-3.565,3.686-5.306,5.47
							c3.481,0.023,6.968,0.045,10.46,0.068C277.207,22.466,279.083,20.641,280.99,18.777z"/>
						<path fill="#DCFFFF" d="M247.73,20.217c-1.479-0.008-2.956-0.017-4.434-0.025c-0.646,0.768-1.289,1.532-1.924,2.29
							c1.458,0.008,2.918,0.017,4.379,0.026C246.406,21.749,247.066,20.986,247.73,20.217z"/>
						<path fill="#CFFFFF" d="M220.157,19.856c-1.717-0.009-3.432-0.019-5.144-0.028c-0.626,0.897-1.253,1.785-1.858,2.674
							c1.686,0.01,3.377,0.021,5.07,0.031C218.861,21.647,219.508,20.758,220.157,19.856z"/>
						<path fill="#D5FFFF" d="M191.918,19.899c-1.439-0.007-2.875-0.015-4.312-0.024c-0.424,0.76-0.838,1.517-1.258,2.261
							c1.418,0.009,2.84,0.018,4.26,0.028C191.041,21.414,191.477,20.659,191.918,19.899z"/>
						<path fill="#91FDFF" d="M168.234,18.182c-3.4-0.019-6.796-0.036-10.185-0.054c-0.732,1.811-1.447,3.591-2.152,5.339
							c3.296,0.021,6.597,0.043,9.905,0.065C166.602,21.781,167.406,19.996,168.234,18.182z"/>
						<path fill="#8DFDFF" d="M141.078,18.01c-3.387-0.018-6.771-0.035-10.148-0.054c-0.489,1.819-0.963,3.606-1.431,5.361
							c3.285,0.021,6.575,0.043,9.872,0.065C139.93,21.623,140.498,19.833,141.078,18.01z"/>
						<path fill="#C4FFFF" d="M111.662,19.133c-1.764-0.011-3.525-0.02-5.285-0.03c-0.139,0.954-0.271,1.898-0.408,2.832
							c1.734,0.012,3.471,0.021,5.209,0.033C111.336,21.032,111.5,20.089,111.662,19.133z"/>
						<path fill="#0F77B0" d="M94.174,14.317c-7.528-0.033-15.03-0.065-22.502-0.099c0.126,4.112,0.244,8.061,0.359,11.856
							c7.036,0.053,14.097,0.105,21.183,0.158C93.521,22.42,93.84,18.451,94.174,14.317z"/>
						<path fill="#0C4C84" d="M68.375,13.705c-8.037-0.033-16.037-0.066-24.006-0.102c0.728,4.423,1.425,8.659,2.091,12.718
							c7.474,0.056,14.979,0.113,22.509,0.17C68.781,22.411,68.58,18.154,68.375,13.705z"/>
						<path fill="#06466F" d="M42.143,13.505c-8.033-0.034-16.031-0.067-23.996-0.101c1.31,4.455,2.56,8.721,3.754,12.807
							c7.472,0.057,14.971,0.113,22.5,0.17C43.682,22.275,42.928,17.987,42.143,13.505z"/>
						<path fill="#095280" d="M0,25.943c6.572,0.05,13.16,0.099,19.778,0.15c-1.22-4.018-2.496-8.208-3.826-12.582
							C10.613,13.488,5.31,13.466,0,13.443V25.943z"/>
						<path fill="#1B7EAC" d="M281.114,0c-4.056,4.332-7.966,8.498-11.712,12.5c6.174,0.022,12.387,0.046,18.598,0.069V0H281.114z"
							/>
						<path fill="#4FE0FF" d="M270.912,0.69c-5.849-0.004-11.682-0.009-17.497-0.013c-2.667,3.274-5.249,6.456-7.751,9.547
							c5.55,0.018,11.11,0.037,16.691,0.053C265.121,7.18,267.973,3.983,270.912,0.69z"/>
						<path fill="#28B2C9" d="M220.496,0c-2.598,3.952-5.103,7.771-7.525,11.444c7.021,0.026,14.066,0.049,21.137,0.075
							c2.814-3.699,5.734-7.54,8.76-11.52H220.496z"/>
						<path fill="#69B9D4" d="M191.254,0c-1.932,3.695-3.802,7.27-5.605,10.724c6.193,0.022,12.405,0.042,18.637,0.063
							c2.13-3.475,4.331-7.071,6.614-10.787H191.254z"/>
						<path fill="#55AECC" d="M160.634,0c-1.443,3.78-2.842,7.439-4.185,10.967c6.497,0.023,13.018,0.044,19.56,0.067
							c1.688-3.549,3.448-7.228,5.258-11.034H160.634z"/>
						<path fill="#247FA5" d="M129.11,0c-0.976,4.126-1.916,8.106-2.819,11.933c7.635,0.027,15.3,0.056,22.991,0.085
							c1.341-3.854,2.744-7.861,4.192-12.019H129.11z"/>
						<path fill="#2796CA" d="M100.747,0c-0.417,3.961-0.821,7.786-1.211,11.469c7.112,0.026,14.255,0.052,21.42,0.078
							c0.775-3.708,1.586-7.56,2.424-11.547H100.747z"/>
						<path fill="#3995C6" d="M72.297,0c0.1,3.893,0.196,7.655,0.291,11.28c6.909,0.026,13.848,0.05,20.81,0.077
							C93.676,7.708,93.961,3.92,94.257,0H72.297z"/>
						<path fill="#47CDF8" d="M63.577,0.052C57.785,0.048,52.008,0.044,46.252,0.04c0.498,3.431,0.982,6.755,1.451,9.977
							c5.495,0.018,11.006,0.035,16.533,0.054C64.022,6.836,63.804,3.498,63.577,0.052z"/>
						<path fill="#4FD6F6" d="M35.226,0.232C29.74,0.227,24.272,0.223,18.819,0.218c0.892,3.273,1.754,6.447,2.594,9.53
							c5.218,0.018,10.448,0.034,15.695,0.051C36.498,6.705,35.871,3.518,35.226,0.232z"/>
						<path fill="#31E4FA" d="M0,9.648C3.536,9.66,7.069,9.671,10.617,9.683C9.629,6.629,8.608,3.484,7.558,0.244
							C5.031,0.241,2.52,0.24,0,0.238V9.648z"/>
					</g>
					<g opacity="0.4">
						<path fill="#55AECC" d="M0,0v11.263c0.237,0.626,0.479,1.264,0.713,1.884c8.991,0.038,18.024,0.076,27.102,0.112
							C26.777,9.031,25.688,4.604,24.558,0H0z"/>
						<path fill="#247FA5" d="M34.734,0c1.028,5.179,2.014,10.139,2.949,14.844c10.911,0.05,21.883,0.101,32.922,0.151
							C70.437,10.244,70.257,5.234,70.07,0H34.734z"/>
						<path fill="#2796CA" d="M78.54,0c-0.017,5.054-0.032,9.896-0.047,14.5c10.538,0.046,21.137,0.093,31.792,0.142
							c0.744-4.647,1.529-9.535,2.347-14.643H78.54z"/>
						<path fill="#3995C6" d="M122.597,0c-1.047,5.074-2.047,9.928-3.001,14.549c10.609,0.046,21.276,0.094,32.003,0.14
							c1.698-4.666,3.482-9.564,5.354-14.689H122.597z"/>
						<path fill="#47CDF8" d="M170.889,0c-1.926,4.495-3.78,8.82-5.558,12.959c8.768,0.035,17.577,0.069,26.425,0.104
							c2.332-4.173,4.766-8.531,7.299-13.064H170.889z"/>
						<path fill="#4FD6F6" d="M217.391,0c-2.866,4.457-5.622,8.746-8.262,12.852c8.632,0.034,17.305,0.067,26.013,0.102
							c3.194-4.137,6.526-8.458,9.989-12.953H217.391z"/>
						<path fill="#31E4FA" d="M264.554,0c-3.872,4.502-7.602,8.828-11.166,12.977c8.771,0.035,17.579,0.068,26.428,0.101
							c2.652-2.681,5.385-5.439,8.185-8.267V0H264.554z"/>
						<path fill="#2C9EC7" d="M7.322,34.055c8.952,0.088,17.945,0.175,26.98,0.262c-1.134-4.76-2.329-9.774-3.59-15.062
							c-9.77-0.057-19.491-0.113-29.161-0.169C3.577,24.339,5.497,29.323,7.322,34.055z"/>
						<path fill="#31A8D1" d="M43.126,34.152c8.805,0.085,17.652,0.17,26.539,0.255c-0.209-4.631-0.425-9.505-0.653-14.638
							c-9.598-0.056-19.146-0.112-28.648-0.167C41.331,24.702,42.253,29.547,43.126,34.152z"/>
						<path fill="#2085B7" d="M77.787,35.205c9.883,0.097,19.817,0.196,29.805,0.293c0.84-5.14,1.732-10.577,2.678-16.342
							c-10.891-0.062-21.72-0.122-32.488-0.183C77.785,24.697,77.785,30.099,77.787,35.205z"/>
						<path fill="#B7FFFF" d="M125.562,30.607c3.596,0.031,7.2,0.062,10.811,0.092c0.581-1.858,1.18-3.75,1.787-5.682
							c-3.724-0.026-7.439-0.053-11.147-0.08C126.518,26.866,126.035,28.755,125.562,30.607z"/>
						<path fill="#ADFFFF" d="M164.598,30.746c3.418,0.029,6.844,0.059,10.271,0.088c0.906-1.747,1.838-3.521,2.779-5.332
							c-3.531-0.026-7.055-0.051-10.572-0.076C166.231,27.232,165.406,29.005,164.598,30.746z"/>
						<path fill="#2FC1FF" d="M193.877,34.783c8.434,0.08,16.908,0.16,25.414,0.239c3.296-4.248,6.751-8.697,10.383-13.357
							c-9.155-0.056-18.268-0.112-27.34-0.166C199.383,26.138,196.563,30.56,193.877,34.783z"/>
						<path fill="#A9FFFF" d="M243.931,31.498c3.662,0.031,7.331,0.062,11.007,0.092c1.743-1.822,3.518-3.688,5.335-5.584
							c-3.793-0.027-7.577-0.054-11.354-0.082C247.222,27.818,245.562,29.68,243.931,31.498z"/>
						<path fill="#31BBE8" d="M0,39.153v10.592c1.559,0.021,3.104,0.043,4.664,0.064C3.172,46.403,1.62,42.851,0,39.153z"/>
						<path fill="#2BB1D3" d="M14.233,50.207c7.714,0.109,15.46,0.216,23.236,0.325c-0.9-3.716-1.844-7.6-2.827-11.665
							c-8.316-0.09-16.593-0.18-24.838-0.271C11.348,42.642,12.821,46.508,14.233,50.207z"/>
					</g>
				</g>
			</g>
		</g>
	</g>
	<g>
		<g opacity="0.3">
			<g>
				<g>
					<g>
						<path fill="#5DD5F2" d="M288,226.248c-6.389,0.109-12.786,0.221-19.201,0.33c0.787,2.703,1.593,5.473,2.42,8.314
							c5.607-0.105,11.195-0.209,16.781-0.314V226.248z"/>
						<path fill="#D5FFFF" d="M35.487,252.361c2.249-0.047,4.493-0.094,6.737-0.14c0.634-0.923,1.255-1.843,1.888-2.747
							c-2.221,0.043-4.439,0.088-6.66,0.135C36.804,250.52,36.146,251.438,35.487,252.361z"/>
						<path fill="#91FDFF" d="M72.55,253.483c5.315-0.112,10.618-0.224,15.915-0.335c1.077-2.189,2.129-4.342,3.167-6.453
							c-5.149,0.103-10.308,0.205-15.475,0.31C74.972,249.123,73.777,251.285,72.55,253.483z"/>
						<path fill="#8DFDFF" d="M114.982,252.624c5.295-0.112,10.584-0.224,15.858-0.334c0.696-2.19,1.376-4.341,2.04-6.454
							c-5.133,0.104-10.276,0.207-15.427,0.309C116.647,248.266,115.822,250.426,114.982,252.624z"/>
						<path fill="#C4FFFF" d="M160.899,250.131c2.755-0.057,5.508-0.115,8.257-0.172c0.18-1.144,0.355-2.275,0.534-3.395
							c-2.709,0.054-5.422,0.109-8.136,0.163C161.343,247.853,161.116,248.984,160.899,250.131z"/>
						<path fill="#0F77B0" d="M188.396,255.193c11.764-0.256,23.486-0.511,35.16-0.766c-0.347-4.902-0.677-9.609-0.994-14.133
							c-10.992,0.212-22.025,0.426-33.1,0.641C189.123,245.498,188.768,250.245,188.396,255.193z"/>
						<path fill="#0C4C84" d="M228.726,254.912c12.557-0.274,25.059-0.549,37.509-0.82c-1.299-5.25-2.541-10.275-3.731-15.094
							c-11.677,0.225-23.403,0.451-35.17,0.679C227.775,244.537,228.242,249.611,228.726,254.912z"/>
						<path fill="#06466F" d="M288,238.414c-7.411,0.143-14.834,0.287-22.282,0.432c1.275,4.871,2.606,9.959,3.997,15.276
							c6.107-0.134,12.202-0.268,18.285-0.399V238.414z"/>
						<path fill="#28B2C9" d="M0,266.842c0.977-1.201,1.943-2.389,2.903-3.566c-0.967,0.021-1.937,0.043-2.903,0.064V266.842z"/>
						<path fill="#69B9D4" d="M6.442,277.002c10.271-0.254,20.501-0.504,30.703-0.756c2.921-4.545,5.745-8.936,8.472-13.181
							c-9.678,0.218-19.382,0.436-29.121,0.655C13.262,267.997,9.916,272.424,6.442,277.002z"/>
						<path fill="#55AECC" d="M52.479,276.324c10.808-0.268,21.576-0.531,32.312-0.799c2.222-4.8,4.372-9.426,6.435-13.895
							c-10.155,0.229-20.339,0.459-30.562,0.687C58.039,266.818,55.302,271.48,52.479,276.324z"/>
						<path fill="#247FA5" d="M95.385,276.712c12.843-0.319,25.634-0.638,38.368-0.956c1.585-5.725,3.102-11.206,4.555-16.459
							c-11.929,0.266-23.902,0.531-35.927,0.799C100.152,265.398,97.812,270.93,95.385,276.712z"/>
						<path fill="#2796CA" d="M142.898,275.035c11.902-0.296,23.762-0.591,35.576-0.883c0.572-5.326,1.123-10.438,1.65-15.352
							c-11.117,0.248-22.274,0.498-33.471,0.746C145.455,264.504,144.202,269.662,142.898,275.035z"/>
						<path fill="#3995C6" d="M188.687,273.775c11.544-0.285,23.046-0.57,34.505-0.855c-0.332-5.182-0.651-10.162-0.956-14.951
							c-10.803,0.242-21.641,0.484-32.519,0.727C189.385,263.525,189.042,268.547,188.687,273.775z"/>
						<path fill="#47CDF8" d="M236.716,271.017c9.051-0.222,18.074-0.444,27.07-0.665c-0.906-4.074-1.782-8.02-2.632-11.848
							c-8.586,0.193-17.196,0.389-25.83,0.582C235.774,262.938,236.236,266.914,236.716,271.017z"/>
						<path fill="#4FD6F6" d="M288,258.115c-3.43,0.077-6.846,0.154-10.282,0.232c1.062,3.67,2.159,7.448,3.286,11.345
							c2.339-0.056,4.661-0.114,6.996-0.171V258.115z"/>
						<path fill="#38A0C3" d="M32.062,288c1.109-1.75,2.205-3.479,3.284-5.18c-11.737,0.301-23.519,0.602-35.347,0.906V288H32.062z"
							/>
						<path fill="#2C9EC7" d="M80.806,288c1.02-2.232,2.028-4.439,3.015-6.595c-12.161,0.312-24.368,0.626-36.625,0.938
							c-1.098,1.854-2.215,3.744-3.345,5.656H80.806z"/>
						<path fill="#31A8D1" d="M128.208,288c0.723-2.537,1.437-5.045,2.129-7.487c-11.559,0.296-23.161,0.594-34.81,0.893
							c-0.891,2.156-1.802,4.364-2.724,6.595H128.208z"/>
						<path fill="#2085B7" d="M177.828,288c0.341-3.26,0.676-6.472,1-9.578c-12.55,0.318-25.149,0.64-37.804,0.963
							c-0.686,2.801-1.396,5.689-2.114,8.615H177.828z"/>
						<path fill="#B7FFFF" d="M212.646,288c-0.035-1.546-0.07-3.096-0.104-4.607c-4.383,0.117-8.775,0.233-13.172,0.35
							c-0.038,1.397-0.075,2.832-0.111,4.258H212.646z"/>
						<path fill="#ADFFFF" d="M259.402,288c-0.362-1.891-0.721-3.762-1.074-5.602c-4.022,0.105-8.046,0.213-12.079,0.322
							c0.256,1.734,0.516,3.5,0.776,5.279H259.402z"/>
						<path fill="#2FC1FF" d="M288,288v-10.615c-2.021,0.053-4.025,0.104-6.049,0.157c0.963,3.386,1.961,6.89,2.977,10.458H288z"/>
					</g>
					<g opacity="0.4">
						<path fill="#0F77B0" d="M143.743,288c0.184-0.804,0.367-1.607,0.548-2.4c-20.428,0.542-40.992,1.09-61.695,1.64
							c-0.113,0.25-0.23,0.51-0.344,0.761H143.743z"/>
						<path fill="#0C4C84" d="M73.199,288c0.271-0.56,0.551-1.137,0.819-1.691c-21.204,0.562-42.562,1.125-64.06,1.691H73.199z"/>
						<path fill="#247FA5" d="M276.633,252.35c-17.047,0.367-34.194,0.74-51.439,1.109c0.59,7.637,1.221,15.771,1.894,24.457
							c18.985-0.488,37.85-0.971,56.6-1.452C281.182,267.903,278.837,259.881,276.633,252.35z"/>
						<path fill="#2796CA" d="M212.887,254.36c-16.466,0.356-33.023,0.716-49.669,1.075c-1.314,7.347-2.71,15.146-4.188,23.452
							c18.264-0.468,36.418-0.931,54.465-1.39C213.279,269.308,213.078,261.61,212.887,254.36z"/>
						<path fill="#3995C6" d="M148.673,255.914c-16.58,0.357-33.245,0.721-50.007,1.085c-3.24,7.364-6.695,15.181-10.374,23.499
							c18.396-0.47,36.686-0.936,54.865-1.398C145.109,270.895,146.943,263.182,148.673,255.914z"/>
						<path fill="#47CDF8" d="M77.278,259.602c-13.703,0.303-27.467,0.605-41.292,0.91c-4.169,6.062-8.551,12.426-13.154,19.117
							c14.919-0.373,29.77-0.746,44.547-1.117C70.841,271.895,74.134,265.598,77.278,259.602z"/>
						<path fill="#4FD6F6" d="M0,272.594c3.036-3.82,5.993-7.545,8.857-11.147c-2.946,0.065-5.906,0.132-8.857,0.196V272.594z"/>
						<path fill="#2C9EC7" d="M288,228.859c-2.267,0.041-4.525,0.082-6.795,0.122c1.944,5.635,3.996,11.571,6.155,17.833
							c0.214-0.005,0.426-0.01,0.64-0.014V228.859z"/>
						<path fill="#31A8D1" d="M267.427,229.521c-13.76,0.244-27.585,0.49-41.473,0.736c0.492,5.52,1.01,11.326,1.558,17.442
							c14.993-0.31,29.915-0.616,44.76-0.923C270.574,240.729,268.96,234.984,267.427,229.521z"/>
						<path fill="#2085B7" d="M213.238,229.625c-15.444,0.271-30.969,0.543-46.572,0.817c-1.129,6.165-2.327,12.688-3.591,19.607
							c17.017-0.354,33.935-0.706,50.762-1.058C213.625,242.164,213.427,235.717,213.238,229.625z"/>
						<path fill="#B7FFFF" d="M138.767,236.984c-5.621,0.104-11.254,0.209-16.896,0.312c-0.838,2.24-1.706,4.521-2.584,6.85
							c5.818-0.112,11.623-0.227,17.418-0.342C137.406,241.486,138.094,239.212,138.767,236.984z"/>
						<path fill="#ADFFFF" d="M77.773,238.348c-5.34,0.1-10.691,0.199-16.051,0.297c-1.35,2.12-2.741,4.273-4.146,6.473
							c5.517-0.108,11.024-0.215,16.52-0.324C75.35,242.605,76.575,240.457,77.773,238.348z"/>
						<path fill="#2FC1FF" d="M0,251.252c6.396-0.131,12.785-0.262,19.156-0.392c4.438-5.651,8.685-11.038,12.732-16.184
							c-10.59,0.19-21.227,0.38-31.889,0.571V251.252z"/>
						<path fill="#2BB1D3" d="M288,209.576c-4.107,0.061-8.214,0.119-12.332,0.179c1.543,4.399,3.154,8.999,4.841,13.81
							c2.502-0.042,4.993-0.084,7.491-0.125V209.576z"/>
					</g>
				</g>
			</g>
		</g>
		<g>
			<g>
				<g>
					<g>
						<path fill="#5DD5F2" d="M247.195,258.423c4.623,0.038,9.236,0.079,13.838,0.118c-0.648-2.391-1.279-4.722-1.896-6.992
							c-4.433-0.047-8.876-0.09-13.327-0.139C246.257,253.69,246.723,256.025,247.195,258.423z"/>
						<path fill="#2799BC" d="M269.151,259.873c6.198,0.049,12.374,0.098,18.531,0.148c-1.323-3.23-2.603-6.35-3.841-9.368
							c-5.858-0.063-11.734-0.124-17.628-0.187C267.163,253.496,268.139,256.629,269.151,259.873z"/>
						<path fill="#31E4FA" d="M0,265.742c2.092-1.939,4.146-3.847,6.154-5.711C4.11,260.016,2.048,260,0,259.984V265.742z"/>
						<path fill="#9EF9FF" d="M7.01,269.223c3.6,0.02,7.191,0.037,10.775,0.057c1.801-1.857,3.565-3.686,5.306-5.469
							c-3.481-0.023-6.968-0.046-10.46-0.068C10.793,265.534,8.917,267.359,7.01,269.223z"/>
						<path fill="#DCFFFF" d="M40.27,267.783c1.479,0.008,2.956,0.018,4.434,0.025c0.646-0.768,1.289-1.531,1.924-2.29
							c-1.458-0.009-2.918-0.017-4.379-0.026C41.594,266.252,40.934,267.014,40.27,267.783z"/>
						<path fill="#CFFFFF" d="M67.843,268.144c1.717,0.009,3.432,0.019,5.144,0.028c0.626-0.898,1.253-1.785,1.858-2.674
							c-1.686-0.011-3.377-0.021-5.07-0.031C69.139,266.354,68.492,267.242,67.843,268.144z"/>
						<path fill="#D5FFFF" d="M96.082,268.102c1.439,0.007,2.875,0.015,4.312,0.023c0.424-0.76,0.838-1.517,1.258-2.262
							c-1.418-0.009-2.84-0.018-4.26-0.027C96.959,266.586,96.523,267.341,96.082,268.102z"/>
						<path fill="#91FDFF" d="M119.766,269.818c3.4,0.019,6.796,0.035,10.185,0.055c0.732-1.811,1.447-3.592,2.152-5.34
							c-3.296-0.021-6.597-0.043-9.905-0.064C121.398,266.219,120.594,268.004,119.766,269.818z"/>
						<path fill="#8DFDFF" d="M146.922,269.99c3.387,0.018,6.771,0.035,10.148,0.054c0.489-1.819,0.963-3.606,1.431-5.361
							c-3.285-0.021-6.575-0.043-9.872-0.065C148.07,266.377,147.502,268.166,146.922,269.99z"/>
						<path fill="#C4FFFF" d="M176.338,268.867c1.764,0.01,3.525,0.02,5.285,0.029c0.139-0.953,0.271-1.898,0.408-2.832
							c-1.734-0.012-3.471-0.021-5.209-0.033C176.664,266.969,176.5,267.911,176.338,268.867z"/>
						<path fill="#0F77B0" d="M193.826,273.683c7.528,0.032,15.03,0.065,22.502,0.099c-0.126-4.111-0.244-8.061-0.359-11.855
							c-7.036-0.053-14.097-0.105-21.183-0.158C194.479,265.58,194.16,269.549,193.826,273.683z"/>
						<path fill="#0C4C84" d="M219.625,274.295c8.037,0.033,16.037,0.066,24.006,0.102c-0.728-4.423-1.425-8.658-2.091-12.718
							c-7.474-0.056-14.979-0.113-22.509-0.17C219.219,265.589,219.42,269.846,219.625,274.295z"/>
						<path fill="#06466F" d="M245.857,274.495c8.033,0.034,16.031,0.067,23.995,0.101c-1.31-4.455-2.56-8.721-3.754-12.807
							c-7.472-0.057-14.971-0.113-22.5-0.17C244.318,265.725,245.072,270.013,245.857,274.495z"/>
						<path fill="#095280" d="M288,262.057c-6.572-0.049-13.16-0.099-19.778-0.149c1.221,4.019,2.496,8.208,3.826,12.581
							c5.339,0.023,10.643,0.045,15.952,0.068V262.057z"/>
						<path fill="#1B7EAC" d="M6.886,288c4.056-4.332,7.966-8.498,11.712-12.5c-6.174-0.021-12.387-0.045-18.598-0.068V288H6.886z"
							/>
						<path fill="#4FE0FF" d="M17.088,287.31c5.849,0.005,11.682,0.009,17.497,0.013c2.667-3.273,5.249-6.455,7.751-9.547
							c-5.55-0.018-11.11-0.037-16.691-0.053C22.879,280.82,20.027,284.017,17.088,287.31z"/>
						<path fill="#28B2C9" d="M67.504,288c2.598-3.952,5.103-7.771,7.525-11.444c-7.021-0.026-14.066-0.05-21.137-0.075
							c-2.814,3.699-5.734,7.539-8.76,11.52H67.504z"/>
						<path fill="#69B9D4" d="M96.746,288c1.932-3.695,3.802-7.27,5.605-10.724c-6.193-0.022-12.405-0.042-18.637-0.063
							c-2.13,3.475-4.331,7.07-6.614,10.787H96.746z"/>
						<path fill="#55AECC" d="M127.366,288c1.443-3.78,2.842-7.439,4.185-10.967c-6.497-0.023-13.018-0.044-19.56-0.067
							c-1.688,3.549-3.448,7.228-5.258,11.034H127.366z"/>
						<path fill="#247FA5" d="M158.89,288c0.976-4.126,1.916-8.106,2.819-11.934c-7.635-0.027-15.3-0.056-22.991-0.085
							c-1.341,3.854-2.744,7.861-4.192,12.019H158.89z"/>
						<path fill="#2796CA" d="M187.253,288c0.417-3.961,0.821-7.785,1.211-11.469c-7.112-0.026-14.255-0.053-21.42-0.078
							c-0.775,3.707-1.586,7.559-2.424,11.547H187.253z"/>
						<path fill="#3995C6" d="M215.703,288c-0.1-3.893-0.196-7.654-0.291-11.28c-6.909-0.026-13.848-0.05-20.81-0.077
							c-0.278,3.648-0.563,7.438-0.859,11.357H215.703z"/>
						<path fill="#47CDF8" d="M224.423,287.947c5.792,0.005,11.569,0.008,17.325,0.014c-0.498-3.432-0.982-6.756-1.451-9.978
							c-5.495-0.018-11.006-0.035-16.533-0.054C223.978,281.164,224.196,284.502,224.423,287.947z"/>
						<path fill="#4FD6F6" d="M252.774,287.768c5.485,0.006,10.953,0.01,16.406,0.014c-0.892-3.272-1.754-6.447-2.594-9.529
							c-5.218-0.018-10.448-0.034-15.695-0.051C251.502,281.295,252.129,284.482,252.774,287.768z"/>
						<path fill="#31E4FA" d="M288,278.352c-3.536-0.012-7.069-0.022-10.617-0.034c0.988,3.054,2.009,6.198,3.06,9.438
							c2.526,0.003,5.038,0.004,7.558,0.006V278.352z"/>
					</g>
					<g opacity="0.4">
						<path fill="#55AECC" d="M288,288v-11.264c-0.237-0.626-0.479-1.264-0.713-1.883c-8.991-0.038-18.024-0.076-27.102-0.113
							c1.037,4.229,2.126,8.656,3.256,13.26H288z"/>
						<path fill="#247FA5" d="M253.266,288c-1.028-5.179-2.014-10.139-2.949-14.844c-10.911-0.051-21.883-0.102-32.922-0.151
							c0.169,4.751,0.349,9.761,0.535,14.995H253.266z"/>
						<path fill="#2796CA" d="M209.46,288c0.017-5.055,0.032-9.896,0.047-14.5c-10.538-0.047-21.137-0.094-31.792-0.143
							c-0.744,4.647-1.529,9.535-2.347,14.643H209.46z"/>
						<path fill="#3995C6" d="M165.403,288c1.047-5.074,2.047-9.928,3.001-14.549c-10.609-0.047-21.276-0.094-32.003-0.141
							c-1.698,4.666-3.482,9.564-5.354,14.689H165.403z"/>
						<path fill="#47CDF8" d="M117.111,288c1.926-4.495,3.78-8.82,5.558-12.959c-8.768-0.035-17.577-0.07-26.425-0.105
							c-2.332,4.174-4.766,8.531-7.299,13.064H117.111z"/>
						<path fill="#4FD6F6" d="M70.609,288c2.866-4.457,5.622-8.746,8.262-12.852c-8.632-0.033-17.305-0.067-26.013-0.102
							c-3.194,4.137-6.526,8.458-9.989,12.953H70.609z"/>
						<path fill="#31E4FA" d="M23.446,288c3.872-4.502,7.602-8.828,11.166-12.977c-8.771-0.035-17.579-0.068-26.428-0.102
							C5.532,277.604,2.8,280.361,0,283.189V288H23.446z"/>
						<path fill="#2C9EC7" d="M280.678,253.945c-8.952-0.088-17.945-0.175-26.98-0.262c1.134,4.76,2.329,9.773,3.59,15.062
							c9.77,0.057,19.49,0.113,29.161,0.169C284.423,263.66,282.503,258.678,280.678,253.945z"/>
						<path fill="#31A8D1" d="M244.874,253.848c-8.805-0.084-17.652-0.17-26.539-0.255c0.209,4.632,0.425,9.505,0.653,14.638
							c9.598,0.057,19.146,0.113,28.648,0.168C246.669,263.298,245.747,258.453,244.874,253.848z"/>
						<path fill="#2085B7" d="M210.213,252.795c-9.883-0.098-19.817-0.195-29.805-0.293c-0.84,5.14-1.732,10.577-2.678,16.342
							c10.891,0.062,21.72,0.122,32.488,0.183C210.215,263.303,210.215,257.901,210.213,252.795z"/>
						<path fill="#B7FFFF" d="M162.438,257.393c-3.596-0.031-7.2-0.061-10.811-0.092c-0.581,1.857-1.18,3.75-1.787,5.682
							c3.724,0.026,7.439,0.054,11.147,0.08C161.482,261.135,161.965,259.245,162.438,257.393z"/>
						<path fill="#ADFFFF" d="M123.402,257.254c-3.418-0.029-6.844-0.059-10.271-0.088c-0.906,1.747-1.838,3.521-2.779,5.332
							c3.531,0.025,7.055,0.051,10.572,0.076C121.769,260.768,122.594,258.994,123.402,257.254z"/>
						<path fill="#2FC1FF" d="M94.123,253.217c-8.434-0.08-16.908-0.16-25.414-0.238c-3.296,4.248-6.751,8.697-10.383,13.356
							c9.155,0.056,18.268,0.112,27.34,0.166C88.617,261.861,91.437,257.439,94.123,253.217z"/>
						<path fill="#A9FFFF" d="M44.069,256.502c-3.662-0.031-7.331-0.062-11.007-0.092c-1.743,1.822-3.518,3.688-5.335,5.584
							c3.793,0.027,7.577,0.053,11.354,0.081C40.778,260.182,42.438,258.32,44.069,256.502z"/>
						<path fill="#31BBE8" d="M288,248.848v-10.592c-1.559-0.021-3.104-0.044-4.664-0.064
							C284.828,241.598,286.38,245.148,288,248.848z"/>
						<path fill="#2BB1D3" d="M273.767,237.793c-7.714-0.108-15.46-0.215-23.236-0.324c0.9,3.716,1.844,7.6,2.827,11.665
							c8.316,0.09,16.593,0.18,24.838,0.271C276.652,245.357,275.179,241.492,273.767,237.793z"/>
					</g>
				</g>
			</g>
		</g>
	</g>
</g>
</svg>
