<?xml version="1.0" encoding="utf-8"?>
<!-- Generator: Adobe Illustrator 16.0.0, SVG Export Plug-In . SVG Version: 6.00 Build 0)  -->
<!DOCTYPE svg PUBLIC "-//W3C//DTD SVG 1.1//EN" "http://www.w3.org/Graphics/SVG/1.1/DTD/svg11.dtd">
<svg version="1.1" id="Design" xmlns="http://www.w3.org/2000/svg" xmlns:xlink="http://www.w3.org/1999/xlink" x="0px" y="0px"
	 width="800px" height="800px" viewBox="0 0 800 800" enable-background="new 0 0 800 800" xml:space="preserve">
<g>
	<linearGradient id="SVGID_1_" gradientUnits="userSpaceOnUse" x1="399.9995" y1="-40.397" x2="399.9995" y2="848.1556">
		<stop  offset="0" style="stop-color:#45BCEB"/>
		<stop  offset="0.0218" style="stop-color:#5AC3ED"/>
		<stop  offset="0.0798" style="stop-color:#8CD5F3"/>
		<stop  offset="0.1371" style="stop-color:#B5E4F7"/>
		<stop  offset="0.1927" style="stop-color:#D5F0FB"/>
		<stop  offset="0.2461" style="stop-color:#ECF8FD"/>
		<stop  offset="0.2963" style="stop-color:#FAFDFE"/>
		<stop  offset="0.34" style="stop-color:#FFFFFF"/>
		<stop  offset="0.655" style="stop-color:#FFFFFF"/>
		<stop  offset="0.7202" style="stop-color:#FCFEFF"/>
		<stop  offset="0.7715" style="stop-color:#F2FAFE"/>
		<stop  offset="0.8182" style="stop-color:#E1F4FC"/>
		<stop  offset="0.862" style="stop-color:#CAECF9"/>
		<stop  offset="0.904" style="stop-color:#ABE1F6"/>
		<stop  offset="0.9444" style="stop-color:#86D3F2"/>
		<stop  offset="0.983" style="stop-color:#5BC4ED"/>
		<stop  offset="1" style="stop-color:#45BCEB"/>
	</linearGradient>
	<rect fill="url(#SVGID_1_)" width="800" height="800"/>
	<g>
		<g>
			<g>
				<g>
					<g>
						<g>
							<g opacity="0.3">
								<path opacity="0.2" fill-rule="evenodd" clip-rule="evenodd" fill="#231F20" d="M0,0v73.184
									c18.685,4.879,37.355,9.473,56.015,13.704C311.606,48.334,559.823,33.818,800,40.2V0H0z"/>
								<path opacity="0.2" fill="#231F20" d="M0,0v220.453c30.986-10.214,61.878-20.081,92.625-29.528
									C187.742,150.162,285.164,85.796,383.391,0H0z"/>
								<path opacity="0.2" fill-rule="evenodd" clip-rule="evenodd" fill="#231F20" d="M0,0v86.823
									C73.275,55.928,146.094,27.038,218.454,0H0z"/>
								<path opacity="0.2" fill-rule="evenodd" clip-rule="evenodd" fill="#231F20" d="M0,0v62.811
									c221.231-32.342,436.303-47.012,644.234-45.464C625.518,11.865,606.818,6.058,588.118,0H0z"/>
								<path opacity="0.2" fill-rule="evenodd" clip-rule="evenodd" fill="#231F20" d="M0,0v73.184
									c18.685,4.879,37.355,9.473,56.015,13.704C311.606,48.334,559.823,33.818,800,40.2V0H0z"/>
								<path opacity="0.2" fill="#231F20" d="M0,0v220.453c30.986-10.214,61.878-20.081,92.625-29.528
									C187.742,150.162,285.164,85.796,383.391,0H0z"/>
								<path opacity="0.2" fill-rule="evenodd" clip-rule="evenodd" fill="#231F20" d="M0,0v86.823
									C73.275,55.928,146.094,27.038,218.454,0H0z"/>
								<path opacity="0.2" fill-rule="evenodd" clip-rule="evenodd" fill="#231F20" d="M0,0v62.811
									c221.231-32.342,436.303-47.012,644.234-45.464C625.518,11.865,606.818,6.058,588.118,0H0z"/>
								<path opacity="0.2" fill="#231F20" d="M0,0v150.755c274.809-54.336,541.801-80.816,800-83.387V0H0z"/>
								<path opacity="0.2" fill="#231F20" d="M0,0v205.577C274.979,136.83,542.145,95.742,800,78.837V0H0z"/>
								<path opacity="0.2" fill-rule="evenodd" clip-rule="evenodd" fill="#231F20" d="M0,49.251v41.464
									c33.33-5.433,66.497-10.435,99.501-15.01C66.363,67.896,33.2,58.999,0,49.251z"/>
								<path opacity="0.2" fill="#231F20" d="M0,0v150.755c274.809-54.336,541.801-80.816,800-83.387V0H0z"/>
								<path opacity="0.2" fill="#231F20" d="M0,0v205.577C274.979,136.83,542.145,95.742,800,78.837V0H0z"/>
								<path opacity="0.2" fill-rule="evenodd" clip-rule="evenodd" fill="#231F20" d="M0,49.251v41.464
									c33.33-5.433,66.497-10.435,99.501-15.01C66.363,67.896,33.2,58.999,0,49.251z"/>
							</g>
							<path opacity="0.2" fill="#231F20" d="M4.17,0C2.778,0.633,1.396,1.233,0,1.864v114.812
								C275.311,68.724,542.43,48.05,800,51.271V0H4.17z"/>
							<path opacity="0.2" fill="#231F20" d="M0,0v225.763C275.467,143.138,542.828,88.407,800,59.045V0H0z"/>
							<path opacity="0.2" fill="#231F20" d="M4.17,0C2.778,0.633,1.396,1.233,0,1.864v114.812
								C275.311,68.724,542.43,48.05,800,51.271V0H4.17z"/>
							<path opacity="0.2" fill="#231F20" d="M0,0v225.763C275.467,143.138,542.828,88.407,800,59.045V0H0z"/>
							<path opacity="0.2" fill="#231F20" d="M0,0v200.954c273.882-66.63,540.799-105.306,800-120.001V0H0z"/>
							<path opacity="0.2" fill="#231F20" d="M424.798,0C322.497,30.518,219.3,64.84,115.169,103.417
								C76.96,117.592,38.567,132.403,0,147.804v52.901c274.034-67.166,540.922-106.08,800-120.869V0H424.798z"/>
							<path opacity="0.2" fill="#231F20" d="M0,0v200.954c273.882-66.63,540.799-105.306,800-120.001V0H0z"/>
							<path opacity="0.2" fill="#231F20" d="M424.798,0C322.497,30.518,219.3,64.84,115.169,103.417
								C76.96,117.592,38.567,132.403,0,147.804v52.901c274.034-67.166,540.922-106.08,800-120.869V0H424.798z"/>
						</g>
					</g>
				</g>
			</g>
		</g>
		<g>
			<g>
				<g>
					<g>
						<g>
							<g opacity="0.3">
								<path opacity="0.2" fill="#231F20" d="M800,800v-50.528c-25.694,16.602-51.382,33.478-77.062,50.528H800z"/>
								<path opacity="0.2" fill-rule="evenodd" clip-rule="evenodd" fill="#231F20" d="M800,800V691.595
									c-63.494,3.501-127.221,7.422-191.196,11.819C489.338,731.488,369.188,763.715,248.539,800H800z"/>
								<path opacity="0.2" fill="#231F20" d="M800,800v-50.528c-25.694,16.602-51.382,33.478-77.062,50.528H800z"/>
								<path opacity="0.2" fill-rule="evenodd" clip-rule="evenodd" fill="#231F20" d="M800,800V691.595
									c-63.494,3.501-127.221,7.422-191.196,11.819C489.338,731.488,369.188,763.715,248.539,800H800z"/>
								<path opacity="0.2" fill-rule="evenodd" clip-rule="evenodd" fill="#231F20" d="M410.105,800
									C540.69,762.543,670.729,729.796,800,701.809v-10.207c-261.553,14.54-528.335,36.625-800,67.759V800H410.105z"/>
								<path opacity="0.2" fill="#231F20" d="M800,800V693.359c-262.995,13.889-529.644,34.874-800,65.466V800H800z"/>
								<path opacity="0.2" fill-rule="evenodd" clip-rule="evenodd" fill="#231F20" d="M800,800v-12.305
									c-65.035-11.856-130.732-24.913-197.136-38.889c-63.187,15.899-126.569,33-190.104,51.193H800z"/>
								<path opacity="0.2" fill-rule="evenodd" clip-rule="evenodd" fill="#231F20" d="M410.105,800
									C540.69,762.543,670.729,729.796,800,701.809v-10.207c-261.553,14.54-528.335,36.625-800,67.759V800H410.105z"/>
								<path opacity="0.2" fill="#231F20" d="M800,800V693.359c-262.995,13.889-529.644,34.874-800,65.466V800H800z"/>
								<path opacity="0.2" fill-rule="evenodd" clip-rule="evenodd" fill="#231F20" d="M800,800v-12.305
									c-65.035-11.856-130.732-24.913-197.136-38.889c-63.187,15.899-126.569,33-190.104,51.193H800z"/>
							</g>
							<path opacity="0.2" fill="#231F20" d="M800,800V692.26c-262.377,14.475-529.069,36.039-800,66.782V800H800z"/>
							<path opacity="0.2" fill-rule="evenodd" clip-rule="evenodd" fill="#231F20" d="M116.667,800
								c94.075-29.354,187.897-56.271,281.387-80.599C266.71,730.389,133.963,743.612,0,759.027V800H116.667z"/>
							<path opacity="0.2" fill="#231F20" d="M800,800V692.26c-262.377,14.475-529.069,36.039-800,66.782V800H800z"/>
							<path opacity="0.2" fill-rule="evenodd" clip-rule="evenodd" fill="#231F20" d="M116.667,800
								c94.075-29.354,187.897-56.271,281.387-80.599C266.71,730.389,133.963,743.612,0,759.027V800H116.667z"/>
						</g>
					</g>
				</g>
			</g>
		</g>
	</g>
	<g>
		<g>
			<path fill="#0083CA" d="M403.573,378.394"/>
		</g>
	</g>
</g>
</svg>
