<?xml version="1.0" encoding="utf-8"?>
<!-- Generator: Adobe Illustrator 17.0.1, SVG Export Plug-In . SVG Version: 6.00 Build 0)  -->
<!DOCTYPE svg PUBLIC "-//W3C//DTD SVG 1.1//EN" "http://www.w3.org/Graphics/SVG/1.1/DTD/svg11.dtd">
<svg version="1.1" id="Layer_1" xmlns="http://www.w3.org/2000/svg" xmlns:xlink="http://www.w3.org/1999/xlink" x="0px" y="0px"
	 width="1250.514px" height="1077.33px" viewBox="0 0 1250.514 1077.33" enable-background="new 0 0 1250.514 1077.33"
	 xml:space="preserve">
<g>
	<g>
		<g>
			<path fill-rule="evenodd" clip-rule="evenodd" fill="#F3F3F3" d="M757.687,920.609c0,0-17.669,54.883,21.247,63.745
				c38.968,8.858,49.565-14.133,49.565-14.133h14.18c0,0,12.388,19.455,28.313,21.195c15.924,1.796,24.787,3.588,42.503-14.133
				h7.062l77.93-77.925l84.945-84.945l77.926-84.992c0,0,46.469-42.938,0-70.812c-3.432-2.032,0-14.185,0-14.185
				s43.803-33.641,0-70.812V559.43c0,0,41.629-29.138,0-70.812v-14.133c0,0,45.594-42.061-14.18-77.928v-7.067
				c0,0,27.056-18.392,27.443-36.736c0.435-21.249-30.105-59.342-69.937-19.942h-14.138c0,0-3.389-7.986-7.114-14.133l-7.067-7.117
				c0,0-65.201,78.412-66.505,77.106c-0.822-0.822-32.865,5.178-74.295,54.403c-17.229,20.379-50.388,10.165-50.388,10.165
				l-77.926,21.249c0,0-19.99,126.618-20.864,128.362c-0.917,1.791-53.919-15.972-57.019-15.055
				c-3.096,0.874-138.958,14.573-169.937,7.071c-30.979-7.553-28.313-49.567-28.313-49.567s-112.005-34.558-113.312-35.429
				c-1.354-0.872-132.766,9.727-134.557,7.066c-1.791-2.614-65.924,3.581-63.745,7.116c2.226,3.533-1.744,78.316,0,77.876
				c1.789-0.43,102.467,67.522,102.467,67.522l38.093,60.503c0,0-27.737,43.273-13.07,84.463c0,0,43.368,24.343,63.745-7.119h14.133
				c0,0,6.197,15.83,21.25,21.251c15.924,5.762,42.496,1.791,56.631-21.251h14.18c0,0,10.167,15.977,28.318,14.185
				c18.151-1.791,30.781-14.327,35.427-21.251h7.066c0,0,6.339,11.184,21.252,14.185c0,0-11.085,19.021-7.072,21.251
				c3.97,2.174,140.078,48.303,141.628,49.56c19.507,15.782,42.498,0.052,42.498,0l0,0c-5.133,2.661-15.972,18.151-14.185,21.247
				C773.659,909.572,757.687,920.609,757.687,920.609z"/>
			<path fill-rule="evenodd" clip-rule="evenodd" fill="#F3F3F3" d="M354.061,860.447c0-13.703,11.084-24.782,24.782-24.782
				c13.698,0,24.782,11.08,24.782,24.782c0,13.694-11.084,24.778-24.782,24.778C365.145,885.225,354.061,874.141,354.061,860.447z"
				/>
			<path fill-rule="evenodd" clip-rule="evenodd" fill="#F3F3F3" d="M1091.563,808.505c0-5.71,4.651-10.352,10.408-10.352
				c5.71,0,10.356,4.642,10.356,10.352c0,5.714-4.646,10.361-10.356,10.361C1096.213,818.866,1091.563,814.219,1091.563,808.505z"/>
			<path fill-rule="evenodd" clip-rule="evenodd" fill="#F3F3F3" d="M21.249,272.647c0-13.696,11.082-24.78,24.78-24.78
				s24.782,11.084,24.782,24.78c0,13.651-11.084,24.782-24.782,24.782S21.249,286.298,21.249,272.647z"/>
			<path fill-rule="evenodd" clip-rule="evenodd" fill="#F3F3F3" d="M269.066,775.451c0-13.698,11.134-24.782,24.83-24.782
				c13.651,0,24.782,11.084,24.782,24.782c0,13.693-11.132,24.778-24.782,24.778C280.2,800.228,269.066,789.144,269.066,775.451z"/>
			<path fill-rule="evenodd" clip-rule="evenodd" fill="#F3F3F3" d="M106.047,187.655c0-13.698,11.085-24.782,24.782-24.782
				c13.698,0,24.783,11.085,24.783,24.782c0,13.696-11.085,24.78-24.783,24.78C117.132,212.436,106.047,201.351,106.047,187.655z"/>
			<path fill-rule="evenodd" clip-rule="evenodd" fill="#F3F3F3" d="M354.061,187.655c0-13.698,11.084-24.782,24.782-24.782
				c13.698,0,24.782,11.085,24.782,24.782c0,13.696-11.084,24.78-24.782,24.78C365.145,212.436,354.061,201.351,354.061,187.655z"/>
			<path fill-rule="evenodd" clip-rule="evenodd" fill="#F3F3F3" d="M431.939,187.655c0-17.619,14.28-31.898,31.898-31.898
				c17.569,0,31.847,14.28,31.847,31.898c0,17.617-14.277,31.847-31.847,31.847C446.219,219.502,431.939,205.272,431.939,187.655z"
				/>
			<path fill-rule="evenodd" clip-rule="evenodd" fill="#F3F3F3" d="M601.926,187.655c0-17.619,14.233-31.898,31.849-31.898
				c17.621,0,31.849,14.28,31.849,31.898c0,17.617-14.228,31.847-31.849,31.847C616.158,219.502,601.926,205.272,601.926,187.655z"
				/>
			<path fill-rule="evenodd" clip-rule="evenodd" fill="#F3F3F3" d="M262,272.647c0-17.616,14.28-31.896,31.897-31.896
				c17.572,0,31.849,14.28,31.849,31.896c0,17.572-14.277,31.849-31.849,31.849C276.279,304.496,262,290.219,262,272.647z"/>
			<path fill-rule="evenodd" clip-rule="evenodd" fill="#F3F3F3" d="M262,357.594c0-17.57,14.28-31.849,31.897-31.849
				c17.572,0,31.849,14.28,31.849,31.849c0,17.619-14.277,31.896-31.849,31.896C276.279,389.491,262,375.213,262,357.594z"/>
			<path fill-rule="evenodd" clip-rule="evenodd" fill="#F3F3F3" d="M679.804,272.647c0-17.616,14.284-31.896,31.853-31.896
				c17.617,0,31.896,14.28,31.896,31.896c0,17.572-14.28,31.849-31.896,31.849C694.088,304.496,679.804,290.219,679.804,272.647z"/>
			<path fill-rule="evenodd" clip-rule="evenodd" fill="#F3F3F3" d="M262,442.589c0-17.572,14.28-31.849,31.897-31.849
				c17.572,0,31.849,14.277,31.849,31.849c0,17.616-14.277,31.896-31.849,31.896C276.279,474.485,262,460.206,262,442.589z"/>
			<path fill-rule="evenodd" clip-rule="evenodd" fill="#F3F3F3" d="M184.122,109.727c0-13.651,11.084-24.782,24.78-24.782
				c13.698,0,24.782,11.132,24.782,24.782c0,13.698-11.084,24.83-24.782,24.83C195.206,134.557,184.122,123.425,184.122,109.727z"/>
			<path fill-rule="evenodd" clip-rule="evenodd" fill="#F3F3F3" d="M941.809,102.661c0-13.698,11.085-24.782,24.778-24.782
				c13.703,0,24.787,11.084,24.787,24.782c0,13.696-11.085,24.78-24.787,24.78C952.893,127.441,941.809,116.357,941.809,102.661z"/>
			<path fill-rule="evenodd" clip-rule="evenodd" fill="#F3F3F3" d="M601.926,24.78c0-13.698,11.089-24.78,24.787-24.78
				c13.693,0,24.782,11.082,24.782,24.78c0,13.698-11.089,24.783-24.782,24.783C613.014,49.563,601.926,38.478,601.926,24.78z"/>
			<path fill-rule="evenodd" clip-rule="evenodd" fill="#F3F3F3" d="M516.934,24.78c0-13.698,11.084-24.78,24.782-24.78
				s24.782,11.082,24.782,24.78c0,13.698-11.084,24.783-24.782,24.783S516.934,38.478,516.934,24.78z"/>
			<path fill-rule="evenodd" clip-rule="evenodd" fill="#F3F3F3" d="M1026.801,187.655c0-13.698,11.084-24.782,24.782-24.782
				s24.782,11.085,24.782,24.782c0,13.696-11.084,24.78-24.782,24.78S1026.801,201.351,1026.801,187.655z"/>
			<path fill-rule="evenodd" clip-rule="evenodd" fill="#F3F3F3" d="M446.122,24.78c0-9.777,7.938-17.713,17.716-17.713
				c9.778,0,17.714,7.936,17.714,17.713c0,9.778-7.936,17.669-17.714,17.669C454.06,42.449,446.122,34.558,446.122,24.78z"/>
			<path fill-rule="evenodd" clip-rule="evenodd" fill="#F3F3F3" d="M693.989,24.78c0-9.777,7.889-17.713,17.669-17.713
				c9.775,0,17.711,7.936,17.711,17.713c0,9.778-7.936,17.669-17.711,17.669C701.878,42.449,693.989,34.558,693.989,24.78z"/>
			<path fill-rule="evenodd" clip-rule="evenodd" fill="#F3F3F3" d="M1111.793,272.647c0-13.696,11.084-24.78,24.787-24.78
				c13.646,0,24.778,11.084,24.778,24.78c0,13.651-11.132,24.782-24.778,24.782C1122.877,297.43,1111.793,286.298,1111.793,272.647z
				"/>
			<path fill-rule="evenodd" clip-rule="evenodd" fill="#F3F3F3" d="M431.939,860.447c0-17.621,14.28-31.901,31.898-31.901
				c17.569,0,31.847,14.28,31.847,31.901c0,17.57-14.277,31.844-31.847,31.844C446.219,892.291,431.939,878.017,431.939,860.447z"/>
			<path fill-rule="evenodd" clip-rule="evenodd" fill="#F3F3F3" d="M1195.05,690.458c0-13.698,11.08-24.787,24.778-24.787
				s24.782,11.089,24.782,24.787c0,13.693-11.084,24.782-24.782,24.782S1195.05,704.152,1195.05,690.458z"/>
			<path fill-rule="evenodd" clip-rule="evenodd" fill="#F3F3F3" d="M1194.516,442.589c0-13.698,11.084-24.783,24.777-24.783
				c13.698,0,24.787,11.085,24.787,24.783c0,13.698-11.089,24.78-24.787,24.78C1205.6,467.369,1194.516,456.287,1194.516,442.589z"
				/>
			<path fill-rule="evenodd" clip-rule="evenodd" fill="#F3F3F3" d="M1186.769,610.689c0-17.621,14.28-31.849,31.849-31.849
				c17.616,0,31.896,14.227,31.896,31.849c0,17.617-14.28,31.897-31.896,31.897C1201.049,642.586,1186.769,628.306,1186.769,610.689
				z"/>
			<path fill-rule="evenodd" clip-rule="evenodd" fill="#F3F3F3" d="M1109.231,609.966c0-21.01,17.035-38.048,38.093-38.048
				c21.006,0,38.046,17.038,38.046,38.048c0,21.053-17.04,38.089-38.046,38.089C1126.266,648.055,1109.231,631.019,1109.231,609.966
				z"/>
			<path fill-rule="evenodd" clip-rule="evenodd" fill="#F3F3F3" d="M1106.471,526.905c0-21.055,17.04-38.093,38.046-38.093
				c21.053,0,38.093,17.038,38.093,38.093c0,21.006-17.04,38.093-38.093,38.093C1123.511,564.998,1106.471,547.911,1106.471,526.905
				z"/>
			<path fill-rule="evenodd" clip-rule="evenodd" fill="#F3F3F3" d="M1106.471,439.635c0-21.006,17.04-38.044,38.046-38.044
				c21.053,0,38.093,17.038,38.093,38.044c0,21.055-17.04,38.093-38.093,38.093C1123.511,477.728,1106.471,460.69,1106.471,439.635z
				"/>
			<path fill-rule="evenodd" clip-rule="evenodd" fill="#F3F3F3" d="M1186.769,523.469c0-17.619,14.28-31.898,31.849-31.898
				c17.616,0,31.896,14.28,31.896,31.898c0,17.57-14.28,31.849-31.896,31.849C1201.049,555.318,1186.769,541.038,1186.769,523.469z"
				/>
			<path fill-rule="evenodd" clip-rule="evenodd" fill="#F3F3F3" d="M509.867,856.907c0-19.55,15.825-35.427,35.384-35.427
				c19.55,0,35.427,15.877,35.427,35.427c0,19.554-15.877,35.384-35.427,35.384C525.692,892.291,509.867,876.461,509.867,856.907z"
				/>
			<path fill-rule="evenodd" clip-rule="evenodd" fill="#F3F3F3" d="M592.926,850.134c0-19.555,15.877-35.427,35.432-35.427
				c19.55,0,35.38,15.873,35.38,35.427c0,19.554-15.83,35.432-35.38,35.432C608.803,885.565,592.926,869.688,592.926,850.134z"/>
			<path fill-rule="evenodd" clip-rule="evenodd" fill="#F3F3F3" d="M665.624,878.111c0-23.431,19.021-42.446,42.498-42.446
				c23.477,0,42.498,19.016,42.498,42.446c0,23.478-19.021,42.498-42.498,42.498C684.644,920.609,665.624,901.589,665.624,878.111z"
				/>
			<path fill-rule="evenodd" clip-rule="evenodd" fill="#F3F3F3" d="M743.7,943.601c0-23.478,19.021-42.499,42.494-42.499
				c23.478,0,42.499,19.021,42.499,42.499c0,23.473-19.021,42.494-42.499,42.494C762.721,986.094,743.7,967.074,743.7,943.601z"/>
			<path fill-rule="evenodd" clip-rule="evenodd" fill="#F3F3F3" d="M900.133,951.39c0-36.302,29.429-65.731,65.778-65.731
				c36.302,0,65.782,29.429,65.782,65.731c0,36.302-29.481,65.731-65.782,65.731C929.562,1017.121,900.133,987.692,900.133,951.39z"
				/>
			<path fill-rule="evenodd" clip-rule="evenodd" fill="#F3F3F3" d="M900.133,951.39c0-36.302,29.429-65.731,65.778-65.731
				c36.302,0,65.782,29.429,65.782,65.731c0,36.302-29.481,65.731-65.782,65.731C929.562,1017.121,900.133,987.692,900.133,951.39z"
				/>
			<path fill-rule="evenodd" clip-rule="evenodd" fill="#F3F3F3" d="M1087.063,760.254c0-31.074,25.17-56.244,56.244-56.244
				s56.291,25.17,56.291,56.244c0,31.022-25.217,56.192-56.291,56.192S1087.063,791.276,1087.063,760.254z"/>
			<path fill-rule="evenodd" clip-rule="evenodd" fill="#F3F3F3" d="M1100.132,347.864c0-23.813,19.313-43.174,43.174-43.174
				s43.174,19.361,43.174,43.174c0,23.863-19.313,43.175-43.174,43.175S1100.132,371.727,1100.132,347.864z"/>
			<path fill-rule="evenodd" clip-rule="evenodd" fill="#F3F3F3" d="M995.339,850.185c0-32,25.945-57.941,57.988-57.941
				c31.995,0,57.983,25.941,57.983,57.941c0,31.991-25.988,57.983-57.983,57.983C1021.285,908.169,995.339,882.176,995.339,850.185z
				"/>
			<path fill-rule="evenodd" clip-rule="evenodd" fill="#F3F3F3" d="M254.789,694.089c0-25.411,20.571-46.034,46.029-46.034
				c25.411,0,46.029,20.623,46.029,46.034s-20.618,46.025-46.029,46.025C275.36,740.113,254.789,719.5,254.789,694.089z"/>
			<path fill-rule="evenodd" clip-rule="evenodd" fill="#F3F3F3" d="M321.971,774.964c0-28.701,23.232-51.933,51.936-51.933
				c28.654,0,51.935,23.232,51.935,51.933c0,28.654-23.281,51.886-51.935,51.886C345.203,826.849,321.971,803.617,321.971,774.964z"
				/>
			<path fill-rule="evenodd" clip-rule="evenodd" fill="#F3F3F3" d="M339.25,695.393c0-28.701,23.282-51.938,51.935-51.938
				c28.703,0,51.935,23.237,51.935,51.938c0,28.654-23.232,51.886-51.935,51.886C362.531,747.279,339.25,724.047,339.25,695.393z"/>
			<path fill-rule="evenodd" clip-rule="evenodd" fill="#F3F3F3" d="M0,605.462c0-25.411,20.618-46.032,46.029-46.032
				s46.032,20.621,46.032,46.032c0,25.458-20.621,46.029-46.032,46.029S0,630.92,0,605.462z"/>
			<path fill-rule="evenodd" clip-rule="evenodd" fill="#F3F3F3" d="M332.812,527.583c0-25.411,20.621-46.031,46.032-46.031
				c25.411,0,46.029,20.62,46.029,46.031s-20.618,46.029-46.029,46.029C353.432,573.613,332.812,552.994,332.812,527.583z"/>
			<path fill-rule="evenodd" clip-rule="evenodd" fill="#F3F3F3" d="M424.872,527.583c0-25.411,20.621-46.031,46.032-46.031
				c25.411,0,46.029,20.62,46.029,46.031s-20.618,46.029-46.029,46.029C445.493,573.613,424.872,552.994,424.872,527.583z"/>
			<path fill-rule="evenodd" clip-rule="evenodd" fill="#F3F3F3" d="M502.753,534.65c0-25.411,20.618-46.032,46.029-46.032
				c25.459,0,46.029,20.621,46.029,46.032c0,25.458-20.571,46.029-46.029,46.029C523.371,580.679,502.753,560.108,502.753,534.65z"
				/>
			<path fill-rule="evenodd" clip-rule="evenodd" fill="#F3F3F3" d="M595.441,526.905c0-21.055,17.087-38.093,38.093-38.093
				c21.053,0,38.093,17.038,38.093,38.093c0,21.006-17.04,38.093-38.093,38.093C612.528,564.998,595.441,547.911,595.441,526.905z"
				/>
			<path fill-rule="evenodd" clip-rule="evenodd" fill="#F3F3F3" d="M672.737,534.65c0-25.411,20.571-46.032,46.034-46.032
				c25.411,0,46.029,20.621,46.029,46.032c0,25.458-20.618,46.029-46.029,46.029C693.308,580.679,672.737,560.108,672.737,534.65z"
				/>
			<path fill-rule="evenodd" clip-rule="evenodd" fill="#F3F3F3" d="M502.753,605.462c0-25.411,20.618-46.032,46.029-46.032
				c25.459,0,46.029,20.621,46.029,46.032c0,25.458-20.571,46.029-46.029,46.029C523.371,651.491,502.753,630.92,502.753,605.462z"
				/>
			<path fill-rule="evenodd" clip-rule="evenodd" fill="#F3F3F3" d="M587.745,605.462c0-25.411,20.618-46.032,46.029-46.032
				s46.029,20.621,46.029,46.032c0,25.458-20.618,46.029-46.029,46.029S587.745,630.92,587.745,605.462z"/>
			<path fill-rule="evenodd" clip-rule="evenodd" fill="#F3F3F3" d="M672.737,605.462c0-25.411,20.571-46.032,46.034-46.032
				c25.411,0,46.029,20.621,46.029,46.032c0,25.458-20.618,46.029-46.029,46.029C693.308,651.491,672.737,630.92,672.737,605.462z"
				/>
			<path fill-rule="evenodd" clip-rule="evenodd" fill="#F3F3F3" d="M247.867,527.583c0-25.411,20.571-46.031,46.029-46.031
				c25.411,0,45.982,20.62,45.982,46.031s-20.571,46.029-45.982,46.029C268.438,573.613,247.867,552.994,247.867,527.583z"/>
			<path fill-rule="evenodd" clip-rule="evenodd" fill="#F3F3F3" d="M169.939,527.583c0-25.411,20.621-46.031,46.032-46.031
				S262,502.172,262,527.583s-20.618,46.029-46.029,46.029S169.939,552.994,169.939,527.583z"/>
			<path fill-rule="evenodd" clip-rule="evenodd" fill="#F3F3F3" d="M84.266,527.583c0-25.411,20.621-46.031,46.032-46.031
				s46.029,20.62,46.029,46.031s-20.618,46.029-46.029,46.029S84.266,552.994,84.266,527.583z"/>
			<path fill-rule="evenodd" clip-rule="evenodd" fill="#F3F3F3" d="M0,527.583c0-25.411,20.618-46.031,46.029-46.031
				s46.032,20.62,46.032,46.031s-20.621,46.029-46.032,46.029S0,552.994,0,527.583z"/>
			<path fill-rule="evenodd" clip-rule="evenodd" fill="#F3F3F3" d="M84.266,442.589c0-25.411,20.621-46.032,46.032-46.032
				s46.029,20.621,46.029,46.032c0,25.411-20.618,46.029-46.029,46.029S84.266,468,84.266,442.589z"/>
			<path fill-rule="evenodd" clip-rule="evenodd" fill="#F3F3F3" d="M162.873,357.594c0-25.411,20.618-46.032,46.029-46.032
				s46.032,20.621,46.032,46.032c0,25.459-20.621,46.029-46.032,46.029S162.873,383.053,162.873,357.594z"/>
			<path fill-rule="evenodd" clip-rule="evenodd" fill="#F3F3F3" d="M84.122,279.714c0-25.411,20.571-46.029,46.032-46.029
				c25.411,0,46.029,20.618,46.029,46.029s-20.618,46.031-46.029,46.031C104.693,325.745,84.122,305.125,84.122,279.714z"/>
			<path fill-rule="evenodd" clip-rule="evenodd" fill="#F3F3F3" d="M162.873,194.722c0-25.411,20.618-46.032,46.029-46.032
				s46.032,20.621,46.032,46.032s-20.621,46.029-46.032,46.029S162.873,220.133,162.873,194.722z"/>
			<path fill-rule="evenodd" clip-rule="evenodd" fill="#F3F3F3" d="M332.812,109.727c0-25.411,20.621-46.031,46.032-46.031
				c25.411,0,46.029,20.62,46.029,46.031c0,25.459-20.618,46.029-46.029,46.029C353.432,155.757,332.812,135.186,332.812,109.727z"
				/>
			<path fill-rule="evenodd" clip-rule="evenodd" fill="#F3F3F3" d="M417.806,109.727c0-25.411,20.62-46.031,46.031-46.031
				c25.411,0,46.029,20.62,46.029,46.031c0,25.459-20.618,46.029-46.029,46.029C438.427,155.757,417.806,135.186,417.806,109.727z"
				/>
			<path fill-rule="evenodd" clip-rule="evenodd" fill="#F3F3F3" d="M502.753,109.727c0-25.411,20.618-46.031,46.029-46.031
				c25.459,0,46.029,20.62,46.029,46.031c0,25.459-20.571,46.029-46.029,46.029C523.371,155.757,502.753,135.186,502.753,109.727z"
				/>
			<path fill-rule="evenodd" clip-rule="evenodd" fill="#F3F3F3" d="M502.753,187.655c0-25.411,20.618-46.031,46.029-46.031
				c25.459,0,46.029,20.62,46.029,46.031s-20.571,46.029-46.029,46.029C523.371,233.685,502.753,213.066,502.753,187.655z"/>
			<path fill-rule="evenodd" clip-rule="evenodd" fill="#F3F3F3" d="M417.806,272.647c0-25.459,20.62-46.029,46.031-46.029
				c25.411,0,46.029,20.571,46.029,46.029c0,25.411-20.618,46.032-46.029,46.032C438.427,318.679,417.806,298.058,417.806,272.647z"
				/>
			<path fill-rule="evenodd" clip-rule="evenodd" fill="#F3F3F3" d="M417.806,357.594c0-25.411,20.62-46.032,46.031-46.032
				c25.411,0,46.029,20.621,46.029,46.032c0,25.459-20.618,46.029-46.029,46.029C438.427,403.624,417.806,383.053,417.806,357.594z"
				/>
			<path fill-rule="evenodd" clip-rule="evenodd" fill="#F3F3F3" d="M332.958,449.703c0-25.459,20.618-46.079,46.029-46.079
				c25.46,0,46.031,20.62,46.031,46.079c0,25.411-20.571,46.031-46.031,46.031C353.577,495.734,332.958,475.114,332.958,449.703z"/>
			<path fill-rule="evenodd" clip-rule="evenodd" fill="#F3F3F3" d="M417.806,449.703c0-25.459,20.62-46.079,46.031-46.079
				c25.411,0,46.029,20.62,46.029,46.079c0,25.411-20.618,46.031-46.029,46.031C438.427,495.734,417.806,475.114,417.806,449.703z"
				/>
			<path fill-rule="evenodd" clip-rule="evenodd" fill="#F3F3F3" d="M587.745,357.594c0-25.411,20.618-46.032,46.029-46.032
				s46.029,20.621,46.029,46.032c0,25.459-20.618,46.029-46.029,46.029S587.745,383.053,587.745,357.594z"/>
			<path fill-rule="evenodd" clip-rule="evenodd" fill="#F3F3F3" d="M665.624,442.589c0-25.411,20.623-46.032,46.034-46.032
				c25.459,0,46.029,20.621,46.029,46.032c0,25.411-20.571,46.029-46.029,46.029C686.246,488.618,665.624,468,665.624,442.589z"/>
			<path fill-rule="evenodd" clip-rule="evenodd" fill="#F3F3F3" d="M750.62,442.589c0-25.411,20.618-46.032,46.029-46.032
				s46.029,20.621,46.029,46.032c0,25.411-20.618,46.029-46.029,46.029S750.62,468,750.62,442.589z"/>
			<path fill-rule="evenodd" clip-rule="evenodd" fill="#F3F3F3" d="M750.62,357.594c0-25.411,20.618-46.032,46.029-46.032
				s46.029,20.621,46.029,46.032c0,25.459-20.618,46.029-46.029,46.029S750.62,383.053,750.62,357.594z"/>
			<path fill-rule="evenodd" clip-rule="evenodd" fill="#F3F3F3" d="M835.612,272.647c0-25.459,20.571-46.029,46.034-46.029
				c25.411,0,46.025,20.571,46.025,46.029c0,25.411-20.613,46.032-46.025,46.032C856.183,318.679,835.612,298.058,835.612,272.647z"
				/>
			<path fill-rule="evenodd" clip-rule="evenodd" fill="#F3F3F3" d="M927.671,272.647c0-25.459,20.571-46.029,46.034-46.029
				c25.411,0,46.029,20.571,46.029,46.029c0,25.411-20.618,46.032-46.029,46.032C948.242,318.679,927.671,298.058,927.671,272.647z"
				/>
			<path fill-rule="evenodd" clip-rule="evenodd" fill="#F3F3F3" d="M1005.554,388.524c0-25.411,20.618-46.031,46.029-46.031
				s46.029,20.62,46.029,46.031c0,25.411-20.618,46.029-46.029,46.029S1005.554,413.935,1005.554,388.524z"/>
			<path fill-rule="evenodd" clip-rule="evenodd" fill="#F3F3F3" d="M927.671,357.594c0-25.411,20.571-46.032,46.034-46.032
				c25.411,0,46.029,20.621,46.029,46.032c0,25.459-20.618,46.029-46.029,46.029C948.242,403.624,927.671,383.053,927.671,357.594z"
				/>
			<path fill-rule="evenodd" clip-rule="evenodd" fill="#F3F3F3" d="M1017.655,272.841c0-25.411,20.618-46.029,46.029-46.029
				s46.029,20.618,46.029,46.029s-20.618,46.032-46.029,46.032S1017.655,298.252,1017.655,272.841z"/>
			<path fill-rule="evenodd" clip-rule="evenodd" fill="#F3F3F3" d="M1019.394,355.9c0-25.459,20.623-46.029,46.034-46.029
				s46.029,20.571,46.029,46.029c0,25.411-20.618,46.029-46.029,46.029S1019.394,381.311,1019.394,355.9z"/>
			<path fill-rule="evenodd" clip-rule="evenodd" fill="#F3F3F3" d="M835.612,357.594c0-25.411,20.571-46.032,46.034-46.032
				c25.411,0,46.025,20.621,46.025,46.032c0,25.459-20.613,46.029-46.025,46.029C856.183,403.624,835.612,383.053,835.612,357.594z"
				/>
			<path fill-rule="evenodd" clip-rule="evenodd" fill="#F3F3F3" d="M835.612,444.137c0-25.411,20.571-46.029,46.034-46.029
				c25.411,0,46.025,20.618,46.025,46.029c0,25.411-20.613,46.031-46.025,46.031C856.183,490.168,835.612,469.548,835.612,444.137z"
				/>
			<path fill-rule="evenodd" clip-rule="evenodd" fill="#F3F3F3" d="M924.14,448.833c0-25.461,20.618-46.032,46.029-46.032
				s46.029,20.571,46.029,46.032c0,25.411-20.618,46.029-46.029,46.029S924.14,474.244,924.14,448.833z"/>
			<path fill-rule="evenodd" clip-rule="evenodd" fill="#F3F3F3" d="M502.753,442.442c0-25.411,20.618-46.029,46.029-46.029
				c25.459,0,46.029,20.618,46.029,46.029c0,25.411-20.571,46.031-46.029,46.031C523.371,488.474,502.753,467.854,502.753,442.442z"
				/>
			<path fill-rule="evenodd" clip-rule="evenodd" fill="#F3F3F3" d="M502.753,272.647c0-25.459,20.618-46.029,46.029-46.029
				c25.459,0,46.029,20.571,46.029,46.029c0,25.411-20.571,46.032-46.029,46.032C523.371,318.679,502.753,298.058,502.753,272.647z"
				/>
			<path fill-rule="evenodd" clip-rule="evenodd" fill="#F3F3F3" d="M502.753,357.594c0-25.411,20.618-46.032,46.029-46.032
				c25.459,0,46.029,20.621,46.029,46.032c0,25.459-20.571,46.029-46.029,46.029C523.371,403.624,502.753,383.053,502.753,357.594z"
				/>
			<path fill-rule="evenodd" clip-rule="evenodd" fill="#F3F3F3" d="M587.745,109.727c0-25.411,20.618-46.031,46.029-46.031
				s46.029,20.62,46.029,46.031c0,25.459-20.618,46.029-46.029,46.029S587.745,135.186,587.745,109.727z"/>
			<path fill-rule="evenodd" clip-rule="evenodd" fill="#F3F3F3" d="M672.737,109.727c0-25.411,20.571-46.031,46.034-46.031
				c25.411,0,46.029,20.62,46.029,46.031c0,25.459-20.618,46.029-46.029,46.029C693.308,155.757,672.737,135.186,672.737,109.727z"
				/>
			<path fill-rule="evenodd" clip-rule="evenodd" fill="#F3F3F3" d="M0,442.589c0-25.411,20.618-46.032,46.029-46.032
				s46.032,20.621,46.032,46.032c0,25.411-20.621,46.029-46.032,46.029S0,468,0,442.589z"/>
			<path fill-rule="evenodd" clip-rule="evenodd" fill="#F3F3F3" d="M84.122,605.462c0-25.411,20.571-46.032,46.032-46.032
				c25.411,0,46.029,20.621,46.029,46.032c0,25.458-20.618,46.029-46.029,46.029C104.693,651.491,84.122,630.92,84.122,605.462z"/>
			<path fill-rule="evenodd" clip-rule="evenodd" fill="#F3F3F3" d="M171.537,605.462c0-25.411,20.571-46.032,46.029-46.032
				c25.411,0,46.031,20.621,46.031,46.032c0,25.458-20.62,46.029-46.031,46.029C192.108,651.491,171.537,630.92,171.537,605.462z"/>
			<path fill-rule="evenodd" clip-rule="evenodd" fill="#F3F3F3" d="M239.009,605.462c0-25.411,20.621-46.032,46.032-46.032
				c25.459,0,46.029,20.621,46.029,46.032c0,25.458-20.571,46.029-46.029,46.029C259.63,651.491,239.009,630.92,239.009,605.462z"/>
			<path fill-rule="evenodd" clip-rule="evenodd" fill="#F3F3F3" d="M263.598,605.462c0-25.411,20.571-46.032,46.029-46.032
				c25.411,0,46.031,20.621,46.031,46.032c0,25.458-20.62,46.029-46.031,46.029C284.168,651.491,263.598,630.92,263.598,605.462z"/>
			<path fill-rule="evenodd" clip-rule="evenodd" fill="#F3F3F3" d="M169.939,279.714c0-21.491,17.425-38.963,38.963-38.963
				c21.493,0,38.965,17.472,38.965,38.963c0,21.492-17.472,38.965-38.965,38.965C187.364,318.679,169.939,301.206,169.939,279.714z"
				/>
			<path fill-rule="evenodd" clip-rule="evenodd" fill="#F3F3F3" d="M254.934,194.722c0-21.492,17.425-38.965,38.963-38.965
				c21.49,0,38.915,17.473,38.915,38.965c0,21.538-17.425,38.963-38.915,38.963C272.359,233.685,254.934,216.259,254.934,194.722z"
				/>
			<path fill-rule="evenodd" clip-rule="evenodd" fill="#F3F3F3" d="M339.878,272.647c0-21.538,17.475-38.963,38.965-38.963
				c21.537,0,38.963,17.425,38.963,38.963c0,21.492-17.425,38.915-38.963,38.915C357.353,311.563,339.878,294.14,339.878,272.647z"
				/>
			<path fill-rule="evenodd" clip-rule="evenodd" fill="#F3F3F3" d="M596.41,272.647c0-21.538,17.428-38.963,38.963-38.963
				c21.492,0,38.915,17.425,38.915,38.963c0,21.492-17.423,38.915-38.915,38.915C613.837,311.563,596.41,294.14,596.41,272.647z"/>
			<path fill-rule="evenodd" clip-rule="evenodd" fill="#F3F3F3" d="M757.687,184.12c0-23.473,19.021-42.496,42.499-42.496
				c23.473,0,42.494,19.023,42.494,42.496c0,23.476-19.021,42.498-42.494,42.498C776.708,226.618,757.687,207.595,757.687,184.12z"
				/>
			<path fill-rule="evenodd" clip-rule="evenodd" fill="#F3F3F3" d="M839.195,191.188c0-23.476,19.021-42.499,42.494-42.499
				c23.478,0,42.498,19.023,42.498,42.499c0,23.473-19.021,42.496-42.498,42.496C858.216,233.685,839.195,214.662,839.195,191.188z"
				/>
			<path fill-rule="evenodd" clip-rule="evenodd" fill="#F3F3F3" d="M920.557,184.266c0-23.476,19.025-42.498,42.499-42.498
				c23.478,0,42.499,19.023,42.499,42.498s-19.021,42.496-42.499,42.496C939.583,226.762,920.557,207.741,920.557,184.266z"/>
			<path fill-rule="evenodd" clip-rule="evenodd" fill="#F3F3F3" d="M339.878,364.708c0-21.538,17.475-38.963,38.965-38.963
				c21.537,0,38.963,17.425,38.963,38.963c0,21.491-17.425,38.916-38.963,38.916C357.353,403.624,339.878,386.199,339.878,364.708z"
				/>
			<path fill-rule="evenodd" clip-rule="evenodd" fill="#F3F3F3" d="M672.737,357.594c0-21.49,17.428-38.915,38.92-38.915
				c21.54,0,38.963,17.425,38.963,38.915c0,21.537-17.423,38.963-38.963,38.963C690.165,396.557,672.737,379.132,672.737,357.594z"
				/>
			<path fill-rule="evenodd" clip-rule="evenodd" fill="#F3F3F3" d="M757.687,272.454c0-21.491,17.475-38.913,38.963-38.913
				c21.492,0,38.963,17.423,38.963,38.913c0,21.54-17.47,38.965-38.963,38.965C775.162,311.419,757.687,293.994,757.687,272.454z"/>
			<path fill-rule="evenodd" clip-rule="evenodd" fill="#F3F3F3" d="M679.804,187.655c0-21.54,17.428-38.965,38.968-38.965
				c21.488,0,38.915,17.425,38.915,38.965c0,21.491-17.428,38.963-38.915,38.963C697.232,226.618,679.804,209.146,679.804,187.655z"
				/>
			<path fill-rule="evenodd" clip-rule="evenodd" fill="#F3F3F3" d="M594.812,442.589c0-21.491,17.475-38.965,38.963-38.965
				c21.492,0,38.963,17.475,38.963,38.965c0,21.538-17.47,38.963-38.963,38.963C612.287,481.552,594.812,464.127,594.812,442.589z"
				/>
			<path fill-rule="evenodd" clip-rule="evenodd" fill="#F3F3F3" d="M254.934,109.727c0-21.49,17.425-38.915,38.963-38.915
				c21.49,0,38.915,17.425,38.915,38.915c0,21.537-17.425,38.963-38.915,38.963C272.359,148.69,254.934,131.265,254.934,109.727z"/>
			<path fill-rule="evenodd" clip-rule="evenodd" fill="#F3F3F3" d="M842.679,109.727c0-21.49,17.423-38.915,38.967-38.915
				c21.488,0,38.911,17.425,38.911,38.915c0,21.537-17.423,38.963-38.911,38.963C860.102,148.69,842.679,131.265,842.679,109.727z"
				/>
			<path fill-rule="evenodd" clip-rule="evenodd" fill="#F3F3F3" d="M764.801,109.727c0-21.49,17.423-38.915,38.916-38.915
				c21.54,0,38.963,17.425,38.963,38.915c0,21.537-17.423,38.963-38.963,38.963C782.223,148.69,764.801,131.265,764.801,109.727z"/>
			<path fill-rule="evenodd" clip-rule="evenodd" fill="#F3F3F3" d="M169.939,442.589c0-21.491,17.425-38.965,38.963-38.965
				c21.493,0,38.965,17.475,38.965,38.965c0,21.538-17.472,38.963-38.965,38.963C187.364,481.552,169.939,464.127,169.939,442.589z"
				/>
			<path fill-rule="evenodd" clip-rule="evenodd" fill="#F3F3F3" d="M87.414,695.393c0-23.913,19.361-43.273,43.272-43.273
				c23.91,0,43.271,19.361,43.271,43.273c0,23.861-19.361,43.222-43.271,43.222C106.775,738.615,87.414,719.254,87.414,695.393z"/>
			<path fill-rule="evenodd" clip-rule="evenodd" fill="#F3F3F3" d="M171.343,695.393c0-23.913,19.408-43.273,43.321-43.273
				c23.86,0,43.271,19.361,43.271,43.273c0,23.861-19.411,43.222-43.271,43.222C190.751,738.615,171.343,719.254,171.343,695.393z"
				/>
			<path fill-rule="evenodd" clip-rule="evenodd" fill="#F3F3F3" d="M91.189,357.594c0-21.49,17.425-38.915,38.965-38.915
				c21.49,0,38.913,17.425,38.913,38.915c0,21.537-17.423,38.963-38.913,38.963C108.614,396.557,91.189,379.132,91.189,357.594z"/>
			<path fill-rule="evenodd" clip-rule="evenodd" fill="#F3F3F3" d="M7.792,357.594c0-21.49,17.425-38.915,38.963-38.915
				c21.493,0,38.916,17.425,38.916,38.915c0,21.537-17.423,38.963-38.916,38.963C25.217,396.557,7.792,379.132,7.792,357.594z"/>
			<path fill-rule="evenodd" clip-rule="evenodd" fill="#F3F3F3" d="M1000.52,894.329c0-5.767,4.647-10.408,10.404-10.408
				c5.715,0,10.361,4.642,10.361,10.408c0,5.71-4.647,10.352-10.361,10.352C1005.167,904.68,1000.52,900.039,1000.52,894.329z"/>
			<path fill-rule="evenodd" clip-rule="evenodd" fill="#F3F3F3" d="M745.005,895.922c0-7.643,6.192-13.84,13.844-13.84
				c7.643,0,13.892,6.197,13.892,13.84c0,7.695-6.249,13.892-13.892,13.892C751.197,909.813,745.005,903.617,745.005,895.922z"/>
			<path fill-rule="evenodd" clip-rule="evenodd" fill="#F3F3F3" d="M754.78,534.65c0-25.411,20.618-46.032,46.029-46.032
				s46.034,20.621,46.034,46.032c0,25.458-20.623,46.029-46.034,46.029S754.78,560.108,754.78,534.65z"/>
			<path fill-rule="evenodd" clip-rule="evenodd" fill="#F3F3F3" d="M754.78,605.462c0-25.411,20.618-46.032,46.029-46.032
				s46.034,20.621,46.034,46.032c0,25.458-20.623,46.029-46.034,46.029S754.78,630.92,754.78,605.462z"/>
			<path fill-rule="evenodd" clip-rule="evenodd" fill="#F3F3F3" d="M839.195,1039.289c0-21.053,17.04-38.093,38.093-38.093
				c21.006,0,38.041,17.04,38.041,38.093c0,21.006-17.035,38.041-38.041,38.041C856.235,1077.33,839.195,1060.295,839.195,1039.289z
				"/>
		</g>
		<path fill-rule="evenodd" clip-rule="evenodd" fill="#F3F3F3" d="M757.493,886.241c0-15.296,8.664-27.685,19.361-27.685
			c10.744,0,19.408,12.389,19.408,27.685c0,15.296-8.664,27.689-19.408,27.689C766.157,913.93,757.493,901.537,757.493,886.241z"/>
	</g>
	<path fill-rule="evenodd" clip-rule="evenodd" fill="#F3F3F3" d="M1071.814,796.263c0-12.247,9.921-22.169,22.169-22.169
		s22.169,9.921,22.169,22.169c0,12.195-9.922,22.116-22.169,22.116S1071.814,808.457,1071.814,796.263z"/>
</g>
</svg>
