<svg xmlns="http://www.w3.org/2000/svg" xmlns:xlink="http://www.w3.org/1999/xlink" version="1.1" x="0px" y="0px" viewBox="0 0 100 100" enable-background="new 0 0 100 100" xml:space="preserve"><path d="M79.6,48.5c0-5-7.3-8.9-16.6-8.9c-3.3,0-6.3,0.5-8.8,1.3v-9.5c0,0,0,0,0,0c0,0,0,0,0,0V21.3c0-5-7.3-8.9-16.6-8.9  s-16.6,3.9-16.6,8.9v10.2c0,0,0,0,0,0c0,0,0,0,0,0v10.2c0,0,0,0,0,0c0,0,0,0,0,0v10.2v0V62c0,5,7.3,8.9,16.6,8.9  c3.2,0,6.2-0.5,8.8-1.4v9.6c0,5,7.3,8.9,16.6,8.9s16.6-3.9,16.6-8.9V69c0,0,0,0,0,0c0,0,0,0,0,0V58.7c0,0,0,0,0,0c0,0,0,0,0,0V48.5z   M46.3,49.2v8.9c-2.6,0.9-5.7,1.5-8.8,1.5c-8.4,0-15.4-3.5-15.4-7.7v-6.7c2.5,3.3,8.4,5.5,15.4,5.5C40.6,50.6,43.7,50.1,46.3,49.2z   M78.4,68.9c0,4.2-7.1,7.7-15.4,7.7s-15.4-3.5-15.4-7.7v-0.2v-6.6c2.5,3.3,8.4,5.5,15.4,5.5s13-2.2,15.4-5.5V68.9z M78.4,52v6.7  c0,4.2-7.1,7.7-15.4,7.7s-15.4-3.5-15.4-7.7v-0.1v0V52c0,0,0,0,0,0c0,0.1,0.1,0.1,0.1,0.2c0.2,0.2,0.3,0.4,0.5,0.6  c0.1,0.1,0.1,0.1,0.2,0.2c0.2,0.2,0.4,0.3,0.6,0.5c0.1,0.1,0.1,0.1,0.2,0.2c0.3,0.2,0.6,0.4,0.9,0.6c0.1,0,0.1,0.1,0.2,0.1  c0.3,0.2,0.5,0.3,0.8,0.5c0.1,0.1,0.2,0.1,0.3,0.2c0.3,0.1,0.5,0.3,0.8,0.4c0.1,0,0.2,0.1,0.3,0.1c0.4,0.2,0.8,0.3,1.1,0.5  c0.1,0,0.1,0,0.2,0.1c0.3,0.1,0.7,0.2,1.1,0.3c0.1,0,0.3,0.1,0.4,0.1c0.3,0.1,0.6,0.2,1,0.2c0.1,0,0.3,0.1,0.4,0.1  c0.5,0.1,0.9,0.2,1.4,0.3c0,0,0.1,0,0.1,0c0.4,0.1,0.9,0.1,1.3,0.2c0.1,0,0.3,0,0.5,0c0.4,0,0.7,0.1,1.1,0.1c0.2,0,0.3,0,0.5,0  c0.5,0,1,0,1.6,0s1,0,1.6,0c0.2,0,0.3,0,0.5,0c0.4,0,0.7-0.1,1.1-0.1c0.2,0,0.3,0,0.5,0c0.5-0.1,0.9-0.1,1.3-0.2c0,0,0.1,0,0.1,0  c0.5-0.1,0.9-0.2,1.4-0.3c0.1,0,0.3-0.1,0.4-0.1c0.3-0.1,0.6-0.2,1-0.2c0.1,0,0.3-0.1,0.4-0.1c0.4-0.1,0.7-0.2,1.1-0.3  c0.1,0,0.1,0,0.2-0.1c0.4-0.1,0.8-0.3,1.1-0.5c0.1,0,0.2-0.1,0.3-0.1c0.3-0.1,0.5-0.2,0.8-0.4c0.1-0.1,0.2-0.1,0.3-0.2  c0.3-0.2,0.5-0.3,0.8-0.5c0.1,0,0.1-0.1,0.2-0.1c0.3-0.2,0.6-0.4,0.9-0.6c0.1-0.1,0.1-0.1,0.2-0.2c0.2-0.2,0.4-0.3,0.6-0.5  c0.1-0.1,0.1-0.1,0.2-0.2c0.2-0.2,0.3-0.4,0.5-0.6C78.3,52.1,78.3,52.1,78.4,52C78.4,52,78.4,52,78.4,52z M78.4,48.5  c0,4.2-7.1,7.7-15.4,7.7s-15.4-3.5-15.4-7.7c0-0.1,0-0.2,0-0.2c0-0.2,0-0.5,0.1-0.7c0-0.1,0.1-0.2,0.1-0.3c0-0.1,0.1-0.3,0.2-0.4  c0.1-0.2,0.2-0.3,0.2-0.5c0-0.1,0.1-0.2,0.1-0.2c2.1-3.1,7.9-5.3,14.6-5.3C71.3,40.8,78.4,44.3,78.4,48.5z M37.5,13.5  c8.4,0,15.4,3.5,15.4,7.7c0,4.2-7.1,7.7-15.4,7.7c-8.4,0-15.4-3.5-15.4-7.7C22.1,17.1,29.1,13.5,37.5,13.5z M22.2,24.9  c0.2,0.2,0.3,0.4,0.5,0.6c0.1,0.1,0.1,0.1,0.2,0.2c0.2,0.2,0.4,0.3,0.6,0.5c0.1,0.1,0.1,0.1,0.2,0.2c0.3,0.2,0.6,0.4,0.9,0.6  c0,0,0.1,0.1,0.1,0.1c0.3,0.2,0.5,0.3,0.8,0.5c0.1,0.1,0.2,0.1,0.3,0.2c0.3,0.1,0.5,0.3,0.8,0.4c0.1,0,0.2,0.1,0.3,0.1  c0.4,0.2,0.8,0.3,1.2,0.5c0,0,0.1,0,0.1,0c0.4,0.1,0.7,0.2,1.1,0.4c0.1,0,0.3,0.1,0.4,0.1c0.3,0.1,0.6,0.2,1,0.3  c0.1,0,0.3,0.1,0.4,0.1c0.5,0.1,0.9,0.2,1.4,0.3c0,0,0.1,0,0.1,0c0.4,0.1,0.9,0.1,1.3,0.2c0.1,0,0.3,0,0.4,0c0.4,0,0.7,0.1,1.1,0.1  c0.2,0,0.3,0,0.5,0c0.5,0,1,0,1.6,0s1,0,1.6,0c0.2,0,0.3,0,0.5,0c0.4,0,0.7-0.1,1.1-0.1c0.1,0,0.3,0,0.4,0c0.5-0.1,0.9-0.1,1.3-0.2  c0,0,0.1,0,0.1,0c0.5-0.1,0.9-0.2,1.4-0.3c0.1,0,0.3-0.1,0.4-0.1c0.3-0.1,0.7-0.2,1-0.3c0.1,0,0.3-0.1,0.4-0.1  c0.4-0.1,0.7-0.2,1.1-0.4c0,0,0.1,0,0.1,0c0.4-0.1,0.8-0.3,1.2-0.5c0.1,0,0.2-0.1,0.3-0.1c0.3-0.1,0.5-0.3,0.8-0.4  c0.1-0.1,0.2-0.1,0.3-0.2c0.3-0.2,0.6-0.3,0.8-0.5c0,0,0.1-0.1,0.1-0.1c0.3-0.2,0.6-0.4,0.9-0.6c0.1-0.1,0.1-0.1,0.2-0.2  c0.2-0.2,0.4-0.3,0.6-0.5c0.1-0.1,0.1-0.1,0.2-0.2c0.2-0.2,0.4-0.4,0.5-0.6c0,0,0.1-0.1,0.1-0.1c0,0,0,0,0,0v6.7  c0,4.2-7.1,7.7-15.4,7.7c-8.4,0-15.4-3.5-15.4-7.7v-6.7c0,0,0,0,0,0C22.2,24.8,22.2,24.8,22.2,24.9z M22.9,35.8  c0.8,0.7,1.7,1.4,2.8,2c0,0,0,0,0,0c3,1.6,7.1,2.6,11.8,2.6c4.7,0,8.8-1,11.8-2.6c0,0,0,0,0,0c1.1-0.6,2-1.3,2.8-2  c0,0,0.1-0.1,0.1-0.1c0.3-0.3,0.5-0.5,0.7-0.8l0,6.5c-0.1,0-0.2,0.1-0.3,0.2c-0.2,0.1-0.4,0.2-0.6,0.3c-0.2,0.1-0.5,0.2-0.7,0.3  c-0.2,0.1-0.3,0.2-0.5,0.3c-0.2,0.1-0.4,0.3-0.6,0.4c-0.1,0.1-0.2,0.2-0.4,0.3c-0.8,0.6-1.5,1.2-2,1.9c0,0.1-0.1,0.1-0.1,0.2  c-0.1,0.2-0.2,0.3-0.3,0.5c-0.1,0.1-0.2,0.3-0.2,0.4c-0.1,0.1-0.1,0.3-0.2,0.4c-0.1,0.2-0.2,0.3-0.2,0.5c0,0.1-0.1,0.2-0.1,0.3  c-0.1,0.2-0.1,0.4-0.1,0.6c0,0,0,0.1,0,0.1c-2.6,0.9-5.7,1.4-8.9,1.4c-8.4,0-15.4-3.5-15.4-7.7v-6.7C22.3,35.2,22.5,35.4,22.9,35.8  C22.8,35.7,22.9,35.8,22.9,35.8z M22.1,62v-6.7c0,0,0,0,0,0c0.1,0.1,0.2,0.2,0.3,0.4c0.1,0.1,0.2,0.2,0.3,0.3  c0.1,0.1,0.3,0.3,0.4,0.4c0.1,0.1,0.2,0.2,0.3,0.2c0.5,0.5,1.2,0.9,1.9,1.3c0.1,0,0.1,0.1,0.2,0.1c0.2,0.1,0.5,0.3,0.7,0.4  c0.1,0,0.1,0.1,0.2,0.1c1.1,0.6,2.4,1,3.8,1.4c0,0,0.1,0,0.1,0c1.4,0.4,3,0.6,4.7,0.8c0,0,0,0,0.1,0c0.8,0.1,1.7,0.1,2.6,0.1  c1.5,0,3-0.1,4.4-0.3c0.1,0,0.2,0,0.2,0c0.7-0.1,1.3-0.2,1.9-0.4c0.1,0,0.2,0,0.3-0.1c0.6-0.2,1.2-0.3,1.8-0.5c0.1,0,0.1,0,0.2-0.1  v8.9c-2.6,0.9-5.7,1.4-8.8,1.4C29.1,69.7,22.1,66.2,22.1,62z M78.4,79.2c0,4.2-7.1,7.7-15.4,7.7s-15.4-3.5-15.4-7.7v-6.7  c2.5,3.3,8.4,5.5,15.4,5.5s13-2.2,15.4-5.5V79.2z"></path></svg>