<?xml version="1.0" encoding="iso-8859-1"?>
<svg xmlns="http://www.w3.org/2000/svg" xmlns:xlink="http://www.w3.org/1999/xlink" version="1.1" id="Capa_1" x="0px" y="0px" viewBox="0 0 317.536 317.536" style="enable-background:new 0 0 317.536 317.536;" xml:space="preserve" width="512px" height="512px">
<g>
  <path d="M103.616,221.205c37.822-7.288,112.142-24.705,143.441-53.651c-2.918-4.087-40.701-23.574-40.701-23.574s44.988,0,63.195,0   C300.611,139.707,311.942,0,311.942,0S182.788,70.085,148.508,113.826c-34.274,43.754-67.88,111.396-67.88,111.396l0.019-0.006   c-42.462,45.148-75.053,81.132-75.053,81.132l35.727-18.991L103.616,221.205z M296.556,23.407   c-1.42,11.645-3.432,26.247-6.144,41.087c-10.077,55.271-20.669,65.226-22.635,66.64h-61.421c-5.932,0-11.099,4.055-12.487,9.814   c-1.395,5.765,1.324,11.735,6.594,14.454c8.021,4.145,16.935,8.927,24.094,12.95c-28.13,17.34-73.054,29.473-105.612,36.575   l162.85-172.914C287.141,28.863,292.134,25.952,296.556,23.407z M158.623,121.756c18.529-23.644,67.932-56.318,106.904-80.001   c-29.525,27.044-69.127,64.178-106.756,102.232c-14.717,14.878-29.731,30.373-44.332,45.631   C126.714,168.1,142.653,142.142,158.623,121.756z M179.241,270.737c39.287,4.357,77.739,13.361,114.97,25.63   c-19.261-3.618-38.477-7.127-57.835-9.589c-19.3-2.731-38.664-4.827-57.976-6.048c-16.748-0.88-33.477-1.247-50.001,0.019   c3.528,0.63,7.07,1.253,10.604,1.896c9.621,1.793,19.293,3.573,29.056,5.842c4.904,1.195,9.743,2.359,14.955,4.389   c1.311,0.533,2.654,1.112,4.177,2.012c0.771,0.469,1.594,0.99,2.558,1.889c0.88,0.932,2.32,2.23,2.815,5.264   c0.411,3.162-1.273,5.598-2.269,6.613c-1.099,1.138-1.999,1.671-2.815,2.172l-1.285,0.675l-1.003,0.456l-2.095,0.803   c-10.829,3.419-20.617,3.766-30.65,4.415c-9.949,0.488-19.827,0.418-29.673,0.148c-39.384-1.048-78.401-5.206-117.174-10.977   c19.608,0.27,39.146,1.003,58.696,1.015c19.531,0.296,39.056,0.366,58.491-0.032c9.711-0.257,19.396-0.675,28.972-1.375   c7.417-0.643,15.135-1.42,21.909-3.078c-2.731-0.79-5.566-1.517-8.438-2.172c-9.312-2.069-18.901-3.74-28.522-5.437   c-9.64-1.819-19.21-3.445-29.184-5.945c-2.629-0.765-4.839-1.17-8.451-3.027c-0.54-0.334-1.041-0.611-1.857-1.33   c-0.636-0.688-2.237-1.864-2.487-5.264c-0.058-1.62,0.578-3.117,1.163-3.965c0.572-0.868,1.189-1.414,1.575-1.742   c0.938-0.733,1.485-0.97,2.069-1.273c2.05-0.919,3.368-1.163,4.801-1.497c5.444-1.105,10.257-1.594,15.341-1.999   C139.658,267.742,159.613,268.494,179.241,270.737z" fill="#0275d8"/>
</g>
</svg>