<?xml version="1.0" encoding="utf-8"?>
<!-- Generator: Adobe Illustrator 16.0.0, SVG Export Plug-In . SVG Version: 6.00 Build 0)  -->
<!DOCTYPE svg PUBLIC "-//W3C//DTD SVG 1.1//EN" "http://www.w3.org/Graphics/SVG/1.1/DTD/svg11.dtd">
<svg version="1.1" id="Calque_1" xmlns:sketch="http://www.bohemiancoding.com/sketch/ns"
	 xmlns="http://www.w3.org/2000/svg" xmlns:xlink="http://www.w3.org/1999/xlink" x="0px" y="0px" width="1440px" height="655px"
	 viewBox="0 0 1440 655" enable-background="new 0 0 1440 655" xml:space="preserve">
<g id="Page-1" sketch:type="MSPage">
	<g id="WINNER" transform="translate(0.000000, -177.000000)" sketch:type="MSArtboardGroup">
		<g id="header" transform="translate(-36.000000, -166.000000)" sketch:type="MSLayerGroup">
			<g id="backgroun" transform="translate(9.000000, 157.000000)" sketch:type="MSShapeGroup">
				<g id="graph" transform="translate(-83.000000, 3.000000)">
					<g transform="translate(110.000000, 184.000000)">
						
							<linearGradient id="Path-539_2_" gradientUnits="userSpaceOnUse" x1="423.325" y1="746.4863" x2="422.4556" y2="745.6569" gradientTransform="matrix(1440 0 0 -654 -607985.875 488469)">
							<stop  offset="0" style="stop-color:#4CC7FF;stop-opacity:0.15"/>
							<stop  offset="1" style="stop-color:#2595FF;stop-opacity:0.15"/>
						</linearGradient>
						<path id="Path-539" fill="url(#Path-539_2_)" d="M0,635c0,0,96.77-113.578,184.879-109.062s150.727,71.254,216.34,71.254
							S537.489,483.84,612.133,483.84s151.621,103.602,207.547,84.277s144.699-145.656,167.09-188.176
							s123.668-167.051,253.203-194.801S1422.328,101.424,1440,52v654H0V635z"/>
						<path id="Path-539_1_" fill="none" stroke="#2595FF" stroke-width="3" d="M0,635c0,0,96.77-113.578,184.879-109.062
							s150.727,71.254,216.34,71.254S537.489,483.84,612.133,483.84s151.621,103.602,207.547,84.277s144.699-145.656,167.09-188.176
							s123.668-167.051,253.203-194.801S1422.328,102.033,1440,52"/>
						<g id="graph-dots" transform="translate(167.000000, 116.000000)">
							<circle id="Oval-60" fill="#FFFFFF" stroke="#2595FF" stroke-width="2" cx="8" cy="409" r="8"/>
							<circle id="Oval-60_1_" fill="#FFFFFF" stroke="#2595FF" stroke-width="2" cx="237" cy="480" r="8"/>
							<circle id="Oval-60_2_" fill="#FFFFFF" stroke="#2595FF" stroke-width="2" cx="440" cy="367" r="8"/>
							<circle id="Oval-60_3_" fill="#FFFFFF" stroke="#2595FF" stroke-width="2" cx="639" cy="455" r="8"/>
							<circle id="Oval-60_4_" fill="#FFFFFF" stroke="#2595FF" stroke-width="2" cx="831" cy="245" r="8"/>
							<circle id="Oval-60_5_" fill="#FFFFFF" stroke="#2595FF" stroke-width="2" cx="1110" cy="60" r="8"/>
						</g>
					</g>
				</g>
			</g>
		</g>
	</g>
</g>
</svg>
